<?xml version="1.0" encoding="utf-8"?>
<svg xmlns="http://www.w3.org/2000/svg" xmlns:xlink="http://www.w3.org/1999/xlink" width="600" height="400" viewBox="0 0 2400 1600">
<defs>
  <clipPath id="clip440">
    <rect x="0" y="0" width="2400" height="1600"/>
  </clipPath>
</defs>
<path clip-path="url(#clip440)" d="
M0 1600 L2400 1600 L2400 0 L0 0  Z
  " fill="#ffffff" fill-rule="evenodd" fill-opacity="1"/>
<defs>
  <clipPath id="clip441">
    <rect x="480" y="0" width="1681" height="1600"/>
  </clipPath>
</defs>
<path clip-path="url(#clip440)" d="
M205.121 1423.18 L2352.76 1423.18 L2352.76 47.2441 L205.121 47.2441  Z
  " fill="#eaeaea" fill-rule="evenodd" fill-opacity="1"/>
<defs>
  <clipPath id="clip442">
    <rect x="205" y="47" width="2149" height="1377"/>
  </clipPath>
</defs>
<polyline clip-path="url(#clip442)" style="stroke:#ffffff; stroke-linecap:butt; stroke-linejoin:round; stroke-width:4; stroke-opacity:1; fill:none" points="
  491.022,1423.18 491.022,47.2441 
  "/>
<polyline clip-path="url(#clip442)" style="stroke:#ffffff; stroke-linecap:butt; stroke-linejoin:round; stroke-width:4; stroke-opacity:1; fill:none" points="
  941.26,1423.18 941.26,47.2441 
  "/>
<polyline clip-path="url(#clip442)" style="stroke:#ffffff; stroke-linecap:butt; stroke-linejoin:round; stroke-width:4; stroke-opacity:1; fill:none" points="
  1391.5,1423.18 1391.5,47.2441 
  "/>
<polyline clip-path="url(#clip442)" style="stroke:#ffffff; stroke-linecap:butt; stroke-linejoin:round; stroke-width:4; stroke-opacity:1; fill:none" points="
  1841.74,1423.18 1841.74,47.2441 
  "/>
<polyline clip-path="url(#clip442)" style="stroke:#ffffff; stroke-linecap:butt; stroke-linejoin:round; stroke-width:4; stroke-opacity:1; fill:none" points="
  2291.97,1423.18 2291.97,47.2441 
  "/>
<polyline clip-path="url(#clip442)" style="stroke:#ffffff; stroke-linecap:butt; stroke-linejoin:round; stroke-width:2; stroke-opacity:1; fill:none" points="
  265.903,1423.18 265.903,47.2441 
  "/>
<polyline clip-path="url(#clip442)" style="stroke:#ffffff; stroke-linecap:butt; stroke-linejoin:round; stroke-width:2; stroke-opacity:1; fill:none" points="
  716.141,1423.18 716.141,47.2441 
  "/>
<polyline clip-path="url(#clip442)" style="stroke:#ffffff; stroke-linecap:butt; stroke-linejoin:round; stroke-width:2; stroke-opacity:1; fill:none" points="
  1166.38,1423.18 1166.38,47.2441 
  "/>
<polyline clip-path="url(#clip442)" style="stroke:#ffffff; stroke-linecap:butt; stroke-linejoin:round; stroke-width:2; stroke-opacity:1; fill:none" points="
  1616.62,1423.18 1616.62,47.2441 
  "/>
<polyline clip-path="url(#clip442)" style="stroke:#ffffff; stroke-linecap:butt; stroke-linejoin:round; stroke-width:2; stroke-opacity:1; fill:none" points="
  2066.85,1423.18 2066.85,47.2441 
  "/>
<polyline clip-path="url(#clip440)" style="stroke:#ffffff; stroke-linecap:butt; stroke-linejoin:round; stroke-width:4; stroke-opacity:1; fill:none" points="
  205.121,1423.18 2352.76,1423.18 
  "/>
<polyline clip-path="url(#clip440)" style="stroke:#333333; stroke-linecap:butt; stroke-linejoin:round; stroke-width:4; stroke-opacity:1; fill:none" points="
  491.022,1423.18 491.022,1442.08 
  "/>
<polyline clip-path="url(#clip440)" style="stroke:#333333; stroke-linecap:butt; stroke-linejoin:round; stroke-width:4; stroke-opacity:1; fill:none" points="
  941.26,1423.18 941.26,1442.08 
  "/>
<polyline clip-path="url(#clip440)" style="stroke:#333333; stroke-linecap:butt; stroke-linejoin:round; stroke-width:4; stroke-opacity:1; fill:none" points="
  1391.5,1423.18 1391.5,1442.08 
  "/>
<polyline clip-path="url(#clip440)" style="stroke:#333333; stroke-linecap:butt; stroke-linejoin:round; stroke-width:4; stroke-opacity:1; fill:none" points="
  1841.74,1423.18 1841.74,1442.08 
  "/>
<polyline clip-path="url(#clip440)" style="stroke:#333333; stroke-linecap:butt; stroke-linejoin:round; stroke-width:4; stroke-opacity:1; fill:none" points="
  2291.97,1423.18 2291.97,1442.08 
  "/>
<polyline clip-path="url(#clip440)" style="stroke:#333333; stroke-linecap:butt; stroke-linejoin:round; stroke-width:4; stroke-opacity:1; fill:none" points="
  265.903,1423.18 265.903,1432.63 
  "/>
<polyline clip-path="url(#clip440)" style="stroke:#333333; stroke-linecap:butt; stroke-linejoin:round; stroke-width:4; stroke-opacity:1; fill:none" points="
  716.141,1423.18 716.141,1432.63 
  "/>
<polyline clip-path="url(#clip440)" style="stroke:#333333; stroke-linecap:butt; stroke-linejoin:round; stroke-width:4; stroke-opacity:1; fill:none" points="
  1166.38,1423.18 1166.38,1432.63 
  "/>
<polyline clip-path="url(#clip440)" style="stroke:#333333; stroke-linecap:butt; stroke-linejoin:round; stroke-width:4; stroke-opacity:1; fill:none" points="
  1616.62,1423.18 1616.62,1432.63 
  "/>
<polyline clip-path="url(#clip440)" style="stroke:#333333; stroke-linecap:butt; stroke-linejoin:round; stroke-width:4; stroke-opacity:1; fill:none" points="
  2066.85,1423.18 2066.85,1432.63 
  "/>
<path clip-path="url(#clip440)" d="M469.795 1491.24 L486.115 1491.24 L486.115 1495.18 L464.17 1495.18 L464.17 1491.24 Q466.832 1488.49 471.416 1483.86 Q476.022 1479.21 477.203 1477.87 Q479.448 1475.34 480.328 1473.61 Q481.23 1471.85 481.23 1470.16 Q481.23 1467.4 479.286 1465.67 Q477.365 1463.93 474.263 1463.93 Q472.064 1463.93 469.61 1464.69 Q467.18 1465.46 464.402 1467.01 L464.402 1462.29 Q467.226 1461.15 469.68 1460.57 Q472.133 1459.99 474.17 1459.99 Q479.541 1459.99 482.735 1462.68 Q485.929 1465.37 485.929 1469.86 Q485.929 1471.99 485.119 1473.91 Q484.332 1475.8 482.226 1478.4 Q481.647 1479.07 478.545 1482.29 Q475.443 1485.48 469.795 1491.24 Z" fill="#4c4c4c" fill-rule="evenodd" fill-opacity="1" /><path clip-path="url(#clip440)" d="M505.929 1463.7 Q502.318 1463.7 500.49 1467.26 Q498.684 1470.8 498.684 1477.93 Q498.684 1485.04 500.49 1488.61 Q502.318 1492.15 505.929 1492.15 Q509.564 1492.15 511.369 1488.61 Q513.198 1485.04 513.198 1477.93 Q513.198 1470.8 511.369 1467.26 Q509.564 1463.7 505.929 1463.7 M505.929 1459.99 Q511.74 1459.99 514.795 1464.6 Q517.874 1469.18 517.874 1477.93 Q517.874 1486.66 514.795 1491.27 Q511.74 1495.85 505.929 1495.85 Q500.119 1495.85 497.041 1491.27 Q493.985 1486.66 493.985 1477.93 Q493.985 1469.18 497.041 1464.6 Q500.119 1459.99 505.929 1459.99 Z" fill="#4c4c4c" fill-rule="evenodd" fill-opacity="1" /><path clip-path="url(#clip440)" d="M929.431 1464.69 L917.626 1483.14 L929.431 1483.14 L929.431 1464.69 M928.205 1460.62 L934.084 1460.62 L934.084 1483.14 L939.015 1483.14 L939.015 1487.03 L934.084 1487.03 L934.084 1495.18 L929.431 1495.18 L929.431 1487.03 L913.83 1487.03 L913.83 1482.52 L928.205 1460.62 Z" fill="#4c4c4c" fill-rule="evenodd" fill-opacity="1" /><path clip-path="url(#clip440)" d="M956.746 1463.7 Q953.135 1463.7 951.306 1467.26 Q949.501 1470.8 949.501 1477.93 Q949.501 1485.04 951.306 1488.61 Q953.135 1492.15 956.746 1492.15 Q960.38 1492.15 962.186 1488.61 Q964.014 1485.04 964.014 1477.93 Q964.014 1470.8 962.186 1467.26 Q960.38 1463.7 956.746 1463.7 M956.746 1459.99 Q962.556 1459.99 965.612 1464.6 Q968.69 1469.18 968.69 1477.93 Q968.69 1486.66 965.612 1491.27 Q962.556 1495.85 956.746 1495.85 Q950.936 1495.85 947.857 1491.27 Q944.802 1486.66 944.802 1477.93 Q944.802 1469.18 947.857 1464.6 Q950.936 1459.99 956.746 1459.99 Z" fill="#4c4c4c" fill-rule="evenodd" fill-opacity="1" /><path clip-path="url(#clip440)" d="M1376.9 1476.04 Q1373.75 1476.04 1371.9 1478.19 Q1370.07 1480.34 1370.07 1484.09 Q1370.07 1487.82 1371.9 1489.99 Q1373.75 1492.15 1376.9 1492.15 Q1380.05 1492.15 1381.88 1489.99 Q1383.73 1487.82 1383.73 1484.09 Q1383.73 1480.34 1381.88 1478.19 Q1380.05 1476.04 1376.9 1476.04 M1386.19 1461.38 L1386.19 1465.64 Q1384.43 1464.81 1382.62 1464.37 Q1380.84 1463.93 1379.08 1463.93 Q1374.45 1463.93 1372 1467.05 Q1369.57 1470.18 1369.22 1476.5 Q1370.58 1474.49 1372.64 1473.42 Q1374.7 1472.33 1377.18 1472.33 Q1382.39 1472.33 1385.4 1475.5 Q1388.43 1478.65 1388.43 1484.09 Q1388.43 1489.42 1385.28 1492.63 Q1382.13 1495.85 1376.9 1495.85 Q1370.91 1495.85 1367.74 1491.27 Q1364.57 1486.66 1364.57 1477.93 Q1364.57 1469.74 1368.45 1464.88 Q1372.34 1459.99 1378.89 1459.99 Q1380.65 1459.99 1382.44 1460.34 Q1384.24 1460.69 1386.19 1461.38 Z" fill="#4c4c4c" fill-rule="evenodd" fill-opacity="1" /><path clip-path="url(#clip440)" d="M1406.49 1463.7 Q1402.88 1463.7 1401.05 1467.26 Q1399.24 1470.8 1399.24 1477.93 Q1399.24 1485.04 1401.05 1488.61 Q1402.88 1492.15 1406.49 1492.15 Q1410.12 1492.15 1411.93 1488.61 Q1413.75 1485.04 1413.75 1477.93 Q1413.75 1470.8 1411.93 1467.26 Q1410.12 1463.7 1406.49 1463.7 M1406.49 1459.99 Q1412.3 1459.99 1415.35 1464.6 Q1418.43 1469.18 1418.43 1477.93 Q1418.43 1486.66 1415.35 1491.27 Q1412.3 1495.85 1406.49 1495.85 Q1400.68 1495.85 1397.6 1491.27 Q1394.54 1486.66 1394.54 1477.93 Q1394.54 1469.18 1397.6 1464.6 Q1400.68 1459.99 1406.49 1459.99 Z" fill="#4c4c4c" fill-rule="evenodd" fill-opacity="1" /><path clip-path="url(#clip440)" d="M1826.61 1478.77 Q1823.28 1478.77 1821.35 1480.55 Q1819.46 1482.33 1819.46 1485.46 Q1819.46 1488.58 1821.35 1490.37 Q1823.28 1492.15 1826.61 1492.15 Q1829.94 1492.15 1831.86 1490.37 Q1833.78 1488.56 1833.78 1485.46 Q1833.78 1482.33 1831.86 1480.55 Q1829.97 1478.77 1826.61 1478.77 M1821.93 1476.78 Q1818.92 1476.04 1817.23 1473.98 Q1815.57 1471.92 1815.57 1468.95 Q1815.57 1464.81 1818.51 1462.4 Q1821.47 1459.99 1826.61 1459.99 Q1831.77 1459.99 1834.71 1462.4 Q1837.65 1464.81 1837.65 1468.95 Q1837.65 1471.92 1835.96 1473.98 Q1834.29 1476.04 1831.31 1476.78 Q1834.69 1477.56 1836.56 1479.86 Q1838.46 1482.15 1838.46 1485.46 Q1838.46 1490.48 1835.38 1493.17 Q1832.33 1495.85 1826.61 1495.85 Q1820.89 1495.85 1817.81 1493.17 Q1814.76 1490.48 1814.76 1485.46 Q1814.76 1482.15 1816.65 1479.86 Q1818.55 1477.56 1821.93 1476.78 M1820.22 1469.39 Q1820.22 1472.08 1821.89 1473.58 Q1823.58 1475.09 1826.61 1475.09 Q1829.62 1475.09 1831.31 1473.58 Q1833.02 1472.08 1833.02 1469.39 Q1833.02 1466.71 1831.31 1465.2 Q1829.62 1463.7 1826.61 1463.7 Q1823.58 1463.7 1821.89 1465.2 Q1820.22 1466.71 1820.22 1469.39 Z" fill="#4c4c4c" fill-rule="evenodd" fill-opacity="1" /><path clip-path="url(#clip440)" d="M1856.77 1463.7 Q1853.16 1463.7 1851.33 1467.26 Q1849.53 1470.8 1849.53 1477.93 Q1849.53 1485.04 1851.33 1488.61 Q1853.16 1492.15 1856.77 1492.15 Q1860.4 1492.15 1862.21 1488.61 Q1864.04 1485.04 1864.04 1477.93 Q1864.04 1470.8 1862.21 1467.26 Q1860.4 1463.7 1856.77 1463.7 M1856.77 1459.99 Q1862.58 1459.99 1865.64 1464.6 Q1868.71 1469.18 1868.71 1477.93 Q1868.71 1486.66 1865.64 1491.27 Q1862.58 1495.85 1856.77 1495.85 Q1850.96 1495.85 1847.88 1491.27 Q1844.83 1486.66 1844.83 1477.93 Q1844.83 1469.18 1847.88 1464.6 Q1850.96 1459.99 1856.77 1459.99 Z" fill="#4c4c4c" fill-rule="evenodd" fill-opacity="1" /><path clip-path="url(#clip440)" d="M2251.58 1491.24 L2259.22 1491.24 L2259.22 1464.88 L2250.91 1466.55 L2250.91 1462.29 L2259.17 1460.62 L2263.85 1460.62 L2263.85 1491.24 L2271.49 1491.24 L2271.49 1495.18 L2251.58 1495.18 L2251.58 1491.24 Z" fill="#4c4c4c" fill-rule="evenodd" fill-opacity="1" /><path clip-path="url(#clip440)" d="M2290.93 1463.7 Q2287.32 1463.7 2285.49 1467.26 Q2283.69 1470.8 2283.69 1477.93 Q2283.69 1485.04 2285.49 1488.61 Q2287.32 1492.15 2290.93 1492.15 Q2294.57 1492.15 2296.37 1488.61 Q2298.2 1485.04 2298.2 1477.93 Q2298.2 1470.8 2296.37 1467.26 Q2294.57 1463.7 2290.93 1463.7 M2290.93 1459.99 Q2296.74 1459.99 2299.8 1464.6 Q2302.88 1469.18 2302.88 1477.93 Q2302.88 1486.66 2299.8 1491.27 Q2296.74 1495.85 2290.93 1495.85 Q2285.12 1495.85 2282.04 1491.27 Q2278.99 1486.66 2278.99 1477.93 Q2278.99 1469.18 2282.04 1464.6 Q2285.12 1459.99 2290.93 1459.99 Z" fill="#4c4c4c" fill-rule="evenodd" fill-opacity="1" /><path clip-path="url(#clip440)" d="M2321.09 1463.7 Q2317.48 1463.7 2315.65 1467.26 Q2313.85 1470.8 2313.85 1477.93 Q2313.85 1485.04 2315.65 1488.61 Q2317.48 1492.15 2321.09 1492.15 Q2324.73 1492.15 2326.53 1488.61 Q2328.36 1485.04 2328.36 1477.93 Q2328.36 1470.8 2326.53 1467.26 Q2324.73 1463.7 2321.09 1463.7 M2321.09 1459.99 Q2326.9 1459.99 2329.96 1464.6 Q2333.04 1469.18 2333.04 1477.93 Q2333.04 1486.66 2329.96 1491.27 Q2326.9 1495.85 2321.09 1495.85 Q2315.28 1495.85 2312.21 1491.27 Q2309.15 1486.66 2309.15 1477.93 Q2309.15 1469.18 2312.21 1464.6 Q2315.28 1459.99 2321.09 1459.99 Z" fill="#4c4c4c" fill-rule="evenodd" fill-opacity="1" /><path clip-path="url(#clip440)" d="M1023.12 1520.52 L1050.43 1520.52 L1050.43 1525.93 L1029.55 1525.93 L1029.55 1539.94 L1048.39 1539.94 L1048.39 1545.35 L1029.55 1545.35 L1029.55 1568.04 L1023.12 1568.04 L1023.12 1520.52 Z" fill="#000000" fill-rule="evenodd" fill-opacity="1" /><path clip-path="url(#clip440)" d="M1076.27 1537.87 Q1075.28 1537.3 1074.11 1537.04 Q1072.96 1536.76 1071.56 1536.76 Q1066.59 1536.76 1063.92 1540 Q1061.28 1543.22 1061.28 1549.27 L1061.28 1568.04 L1055.39 1568.04 L1055.39 1532.4 L1061.28 1532.4 L1061.28 1537.93 Q1063.13 1534.69 1066.09 1533.13 Q1069.05 1531.54 1073.28 1531.54 Q1073.88 1531.54 1074.62 1531.63 Q1075.35 1531.7 1076.24 1531.85 L1076.27 1537.87 Z" fill="#000000" fill-rule="evenodd" fill-opacity="1" /><path clip-path="url(#clip440)" d="M1111.47 1548.76 L1111.47 1551.62 L1084.55 1551.62 Q1084.93 1557.67 1088.17 1560.85 Q1091.45 1564 1097.28 1564 Q1100.65 1564 1103.8 1563.17 Q1106.98 1562.35 1110.1 1560.69 L1110.1 1566.23 Q1106.95 1567.57 1103.64 1568.27 Q1100.33 1568.97 1096.93 1568.97 Q1088.4 1568.97 1083.4 1564 Q1078.43 1559.04 1078.43 1550.57 Q1078.43 1541.82 1083.15 1536.69 Q1087.89 1531.54 1095.91 1531.54 Q1103.1 1531.54 1107.27 1536.18 Q1111.47 1540.8 1111.47 1548.76 M1105.62 1547.04 Q1105.55 1542.23 1102.91 1539.37 Q1100.3 1536.5 1095.97 1536.5 Q1091.07 1536.5 1088.11 1539.27 Q1085.18 1542.04 1084.74 1547.07 L1105.62 1547.04 Z" fill="#000000" fill-rule="evenodd" fill-opacity="1" /><path clip-path="url(#clip440)" d="M1124.59 1550.25 Q1124.59 1556.71 1127.23 1560.4 Q1129.9 1564.07 1134.55 1564.07 Q1139.2 1564.07 1141.87 1560.4 Q1144.54 1556.71 1144.54 1550.25 Q1144.54 1543.79 1141.87 1540.13 Q1139.2 1536.44 1134.55 1536.44 Q1129.9 1536.44 1127.23 1540.13 Q1124.59 1543.79 1124.59 1550.25 M1144.54 1562.7 Q1142.7 1565.88 1139.86 1567.44 Q1137.06 1568.97 1133.12 1568.97 Q1126.65 1568.97 1122.58 1563.81 Q1118.54 1558.65 1118.54 1550.25 Q1118.54 1541.85 1122.58 1536.69 Q1126.65 1531.54 1133.12 1531.54 Q1137.06 1531.54 1139.86 1533.1 Q1142.7 1534.62 1144.54 1537.81 L1144.54 1532.4 L1150.4 1532.4 L1150.4 1581.6 L1144.54 1581.6 L1144.54 1562.7 Z" fill="#000000" fill-rule="evenodd" fill-opacity="1" /><path clip-path="url(#clip440)" d="M1161.86 1553.98 L1161.86 1532.4 L1167.71 1532.4 L1167.71 1553.75 Q1167.71 1558.81 1169.69 1561.36 Q1171.66 1563.87 1175.61 1563.87 Q1180.35 1563.87 1183.09 1560.85 Q1185.86 1557.83 1185.86 1552.61 L1185.86 1532.4 L1191.71 1532.4 L1191.71 1568.04 L1185.86 1568.04 L1185.86 1562.57 Q1183.72 1565.82 1180.89 1567.41 Q1178.09 1568.97 1174.37 1568.97 Q1168.22 1568.97 1165.04 1565.15 Q1161.86 1561.33 1161.86 1553.98 M1176.59 1531.54 L1176.59 1531.54 Z" fill="#000000" fill-rule="evenodd" fill-opacity="1" /><path clip-path="url(#clip440)" d="M1234.27 1548.76 L1234.27 1551.62 L1207.34 1551.62 Q1207.72 1557.67 1210.97 1560.85 Q1214.25 1564 1220.07 1564 Q1223.45 1564 1226.6 1563.17 Q1229.78 1562.35 1232.9 1560.69 L1232.9 1566.23 Q1229.75 1567.57 1226.44 1568.27 Q1223.13 1568.97 1219.72 1568.97 Q1211.19 1568.97 1206.19 1564 Q1201.23 1559.04 1201.23 1550.57 Q1201.23 1541.82 1205.94 1536.69 Q1210.68 1531.54 1218.7 1531.54 Q1225.9 1531.54 1230.07 1536.18 Q1234.27 1540.8 1234.27 1548.76 M1228.41 1547.04 Q1228.35 1542.23 1225.71 1539.37 Q1223.1 1536.5 1218.77 1536.5 Q1213.87 1536.5 1210.9 1539.27 Q1207.98 1542.04 1207.53 1547.07 L1228.41 1547.04 Z" fill="#000000" fill-rule="evenodd" fill-opacity="1" /><path clip-path="url(#clip440)" d="M1273.51 1546.53 L1273.51 1568.04 L1267.66 1568.04 L1267.66 1546.72 Q1267.66 1541.66 1265.68 1539.14 Q1263.71 1536.63 1259.76 1536.63 Q1255.02 1536.63 1252.28 1539.65 Q1249.54 1542.68 1249.54 1547.9 L1249.54 1568.04 L1243.66 1568.04 L1243.66 1532.4 L1249.54 1532.4 L1249.54 1537.93 Q1251.65 1534.72 1254.48 1533.13 Q1257.34 1531.54 1261.07 1531.54 Q1267.21 1531.54 1270.36 1535.36 Q1273.51 1539.14 1273.51 1546.53 Z" fill="#000000" fill-rule="evenodd" fill-opacity="1" /><path clip-path="url(#clip440)" d="M1310.85 1533.76 L1310.85 1539.24 Q1308.36 1537.87 1305.85 1537.2 Q1303.37 1536.5 1300.82 1536.5 Q1295.12 1536.5 1291.97 1540.13 Q1288.82 1543.73 1288.82 1550.25 Q1288.82 1556.78 1291.97 1560.4 Q1295.12 1564 1300.82 1564 Q1303.37 1564 1305.85 1563.33 Q1308.36 1562.63 1310.85 1561.26 L1310.85 1566.68 Q1308.4 1567.82 1305.75 1568.39 Q1303.14 1568.97 1300.18 1568.97 Q1292.13 1568.97 1287.39 1563.91 Q1282.65 1558.85 1282.65 1550.25 Q1282.65 1541.53 1287.42 1536.53 Q1292.23 1531.54 1300.57 1531.54 Q1303.27 1531.54 1305.85 1532.11 Q1308.43 1532.65 1310.85 1533.76 Z" fill="#000000" fill-rule="evenodd" fill-opacity="1" /><path clip-path="url(#clip440)" d="M1335.86 1571.35 Q1333.38 1577.72 1331.03 1579.66 Q1328.67 1581.6 1324.72 1581.6 L1320.04 1581.6 L1320.04 1576.7 L1323.48 1576.7 Q1325.9 1576.7 1327.24 1575.56 Q1328.58 1574.41 1330.2 1570.14 L1331.25 1567.47 L1316.83 1532.4 L1323.04 1532.4 L1334.18 1560.28 L1345.32 1532.4 L1351.52 1532.4 L1335.86 1571.35 Z" fill="#000000" fill-rule="evenodd" fill-opacity="1" /><path clip-path="url(#clip440)" d="M1380.33 1532.4 L1386.18 1532.4 L1386.18 1568.04 L1380.33 1568.04 L1380.33 1532.4 M1380.33 1518.52 L1386.18 1518.52 L1386.18 1525.93 L1380.33 1525.93 L1380.33 1518.52 Z" fill="#000000" fill-rule="evenodd" fill-opacity="1" /><path clip-path="url(#clip440)" d="M1428.07 1546.53 L1428.07 1568.04 L1422.21 1568.04 L1422.21 1546.72 Q1422.21 1541.66 1420.24 1539.14 Q1418.27 1536.63 1414.32 1536.63 Q1409.58 1536.63 1406.84 1539.65 Q1404.1 1542.68 1404.1 1547.9 L1404.1 1568.04 L1398.22 1568.04 L1398.22 1532.4 L1404.1 1532.4 L1404.1 1537.93 Q1406.2 1534.72 1409.04 1533.13 Q1411.9 1531.54 1415.63 1531.54 Q1421.77 1531.54 1424.92 1535.36 Q1428.07 1539.14 1428.07 1546.53 Z" fill="#000000" fill-rule="evenodd" fill-opacity="1" /><path clip-path="url(#clip440)" d="M1460.73 1520.52 L1467.16 1520.52 L1467.16 1540 L1490.52 1540 L1490.52 1520.52 L1496.95 1520.52 L1496.95 1568.04 L1490.52 1568.04 L1490.52 1545.41 L1467.16 1545.41 L1467.16 1568.04 L1460.73 1568.04 L1460.73 1520.52 Z" fill="#000000" fill-rule="evenodd" fill-opacity="1" /><path clip-path="url(#clip440)" d="M1506.94 1532.4 L1534.76 1532.4 L1534.76 1537.74 L1512.73 1563.37 L1534.76 1563.37 L1534.76 1568.04 L1506.15 1568.04 L1506.15 1562.7 L1528.17 1537.07 L1506.94 1537.07 L1506.94 1532.4 Z" fill="#000000" fill-rule="evenodd" fill-opacity="1" /><polyline clip-path="url(#clip442)" style="stroke:#ffffff; stroke-linecap:butt; stroke-linejoin:round; stroke-width:4; stroke-opacity:1; fill:none" points="
  205.121,1395.9 2352.76,1395.9 
  "/>
<polyline clip-path="url(#clip442)" style="stroke:#ffffff; stroke-linecap:butt; stroke-linejoin:round; stroke-width:4; stroke-opacity:1; fill:none" points="
  205.121,1168.8 2352.76,1168.8 
  "/>
<polyline clip-path="url(#clip442)" style="stroke:#ffffff; stroke-linecap:butt; stroke-linejoin:round; stroke-width:4; stroke-opacity:1; fill:none" points="
  205.121,941.707 2352.76,941.707 
  "/>
<polyline clip-path="url(#clip442)" style="stroke:#ffffff; stroke-linecap:butt; stroke-linejoin:round; stroke-width:4; stroke-opacity:1; fill:none" points="
  205.121,714.609 2352.76,714.609 
  "/>
<polyline clip-path="url(#clip442)" style="stroke:#ffffff; stroke-linecap:butt; stroke-linejoin:round; stroke-width:4; stroke-opacity:1; fill:none" points="
  205.121,487.51 2352.76,487.51 
  "/>
<polyline clip-path="url(#clip442)" style="stroke:#ffffff; stroke-linecap:butt; stroke-linejoin:round; stroke-width:4; stroke-opacity:1; fill:none" points="
  205.121,260.412 2352.76,260.412 
  "/>
<polyline clip-path="url(#clip442)" style="stroke:#ffffff; stroke-linecap:butt; stroke-linejoin:round; stroke-width:2; stroke-opacity:1; fill:none" points="
  205.121,1282.35 2352.76,1282.35 
  "/>
<polyline clip-path="url(#clip442)" style="stroke:#ffffff; stroke-linecap:butt; stroke-linejoin:round; stroke-width:2; stroke-opacity:1; fill:none" points="
  205.121,1055.26 2352.76,1055.26 
  "/>
<polyline clip-path="url(#clip442)" style="stroke:#ffffff; stroke-linecap:butt; stroke-linejoin:round; stroke-width:2; stroke-opacity:1; fill:none" points="
  205.121,828.158 2352.76,828.158 
  "/>
<polyline clip-path="url(#clip442)" style="stroke:#ffffff; stroke-linecap:butt; stroke-linejoin:round; stroke-width:2; stroke-opacity:1; fill:none" points="
  205.121,601.059 2352.76,601.059 
  "/>
<polyline clip-path="url(#clip442)" style="stroke:#ffffff; stroke-linecap:butt; stroke-linejoin:round; stroke-width:2; stroke-opacity:1; fill:none" points="
  205.121,373.961 2352.76,373.961 
  "/>
<polyline clip-path="url(#clip442)" style="stroke:#ffffff; stroke-linecap:butt; stroke-linejoin:round; stroke-width:2; stroke-opacity:1; fill:none" points="
  205.121,146.863 2352.76,146.863 
  "/>
<polyline clip-path="url(#clip440)" style="stroke:#ffffff; stroke-linecap:butt; stroke-linejoin:round; stroke-width:4; stroke-opacity:1; fill:none" points="
  205.121,1423.18 205.121,47.2441 
  "/>
<polyline clip-path="url(#clip440)" style="stroke:#333333; stroke-linecap:butt; stroke-linejoin:round; stroke-width:4; stroke-opacity:1; fill:none" points="
  205.121,1395.9 186.223,1395.9 
  "/>
<polyline clip-path="url(#clip440)" style="stroke:#333333; stroke-linecap:butt; stroke-linejoin:round; stroke-width:4; stroke-opacity:1; fill:none" points="
  205.121,1168.8 186.223,1168.8 
  "/>
<polyline clip-path="url(#clip440)" style="stroke:#333333; stroke-linecap:butt; stroke-linejoin:round; stroke-width:4; stroke-opacity:1; fill:none" points="
  205.121,941.707 186.223,941.707 
  "/>
<polyline clip-path="url(#clip440)" style="stroke:#333333; stroke-linecap:butt; stroke-linejoin:round; stroke-width:4; stroke-opacity:1; fill:none" points="
  205.121,714.609 186.223,714.609 
  "/>
<polyline clip-path="url(#clip440)" style="stroke:#333333; stroke-linecap:butt; stroke-linejoin:round; stroke-width:4; stroke-opacity:1; fill:none" points="
  205.121,487.51 186.223,487.51 
  "/>
<polyline clip-path="url(#clip440)" style="stroke:#333333; stroke-linecap:butt; stroke-linejoin:round; stroke-width:4; stroke-opacity:1; fill:none" points="
  205.121,260.412 186.223,260.412 
  "/>
<polyline clip-path="url(#clip440)" style="stroke:#333333; stroke-linecap:butt; stroke-linejoin:round; stroke-width:4; stroke-opacity:1; fill:none" points="
  205.121,1282.35 195.672,1282.35 
  "/>
<polyline clip-path="url(#clip440)" style="stroke:#333333; stroke-linecap:butt; stroke-linejoin:round; stroke-width:4; stroke-opacity:1; fill:none" points="
  205.121,1055.26 195.672,1055.26 
  "/>
<polyline clip-path="url(#clip440)" style="stroke:#333333; stroke-linecap:butt; stroke-linejoin:round; stroke-width:4; stroke-opacity:1; fill:none" points="
  205.121,828.158 195.672,828.158 
  "/>
<polyline clip-path="url(#clip440)" style="stroke:#333333; stroke-linecap:butt; stroke-linejoin:round; stroke-width:4; stroke-opacity:1; fill:none" points="
  205.121,601.059 195.672,601.059 
  "/>
<polyline clip-path="url(#clip440)" style="stroke:#333333; stroke-linecap:butt; stroke-linejoin:round; stroke-width:4; stroke-opacity:1; fill:none" points="
  205.121,373.961 195.672,373.961 
  "/>
<polyline clip-path="url(#clip440)" style="stroke:#333333; stroke-linecap:butt; stroke-linejoin:round; stroke-width:4; stroke-opacity:1; fill:none" points="
  205.121,146.863 195.672,146.863 
  "/>
<path clip-path="url(#clip440)" d="M103.043 1409.25 L119.362 1409.25 L119.362 1413.18 L97.4176 1413.18 L97.4176 1409.25 Q100.08 1406.49 104.663 1401.86 Q109.269 1397.21 110.45 1395.87 Q112.695 1393.34 113.575 1391.61 Q114.478 1389.85 114.478 1388.16 Q114.478 1385.41 112.533 1383.67 Q110.612 1381.93 107.51 1381.93 Q105.311 1381.93 102.857 1382.7 Q100.427 1383.46 97.649 1385.01 L97.649 1380.29 Q100.473 1379.16 102.927 1378.58 Q105.38 1378 107.418 1378 Q112.788 1378 115.982 1380.68 Q119.177 1383.37 119.177 1387.86 Q119.177 1389.99 118.367 1391.91 Q117.579 1393.81 115.473 1396.4 Q114.894 1397.07 111.792 1400.29 Q108.691 1403.48 103.043 1409.25 Z" fill="#4c4c4c" fill-rule="evenodd" fill-opacity="1" /><path clip-path="url(#clip440)" d="M139.177 1381.7 Q135.566 1381.7 133.737 1385.27 Q131.931 1388.81 131.931 1395.94 Q131.931 1403.04 133.737 1406.61 Q135.566 1410.15 139.177 1410.15 Q142.811 1410.15 144.616 1406.61 Q146.445 1403.04 146.445 1395.94 Q146.445 1388.81 144.616 1385.27 Q142.811 1381.7 139.177 1381.7 M139.177 1378 Q144.987 1378 148.042 1382.6 Q151.121 1387.19 151.121 1395.94 Q151.121 1404.66 148.042 1409.27 Q144.987 1413.85 139.177 1413.85 Q133.366 1413.85 130.288 1409.27 Q127.232 1404.66 127.232 1395.94 Q127.232 1387.19 130.288 1382.6 Q133.366 1378 139.177 1378 Z" fill="#4c4c4c" fill-rule="evenodd" fill-opacity="1" /><path clip-path="url(#clip440)" d="M113.181 1167.45 Q116.538 1168.17 118.413 1170.44 Q120.311 1172.71 120.311 1176.04 Q120.311 1181.15 116.792 1183.96 Q113.274 1186.76 106.793 1186.76 Q104.617 1186.76 102.302 1186.32 Q100.01 1185.9 97.5564 1185.04 L97.5564 1180.53 Q99.5009 1181.66 101.816 1182.24 Q104.13 1182.82 106.654 1182.82 Q111.052 1182.82 113.343 1181.08 Q115.658 1179.35 115.658 1176.04 Q115.658 1172.98 113.505 1171.27 Q111.376 1169.53 107.556 1169.53 L103.529 1169.53 L103.529 1165.69 L107.742 1165.69 Q111.191 1165.69 113.019 1164.33 Q114.848 1162.94 114.848 1160.34 Q114.848 1157.68 112.95 1156.27 Q111.075 1154.83 107.556 1154.83 Q105.635 1154.83 103.436 1155.25 Q101.237 1155.67 98.5981 1156.55 L98.5981 1152.38 Q101.26 1151.64 103.575 1151.27 Q105.913 1150.9 107.973 1150.9 Q113.297 1150.9 116.399 1153.33 Q119.501 1155.74 119.501 1159.86 Q119.501 1162.73 117.857 1164.72 Q116.214 1166.69 113.181 1167.45 Z" fill="#4c4c4c" fill-rule="evenodd" fill-opacity="1" /><path clip-path="url(#clip440)" d="M139.177 1154.6 Q135.566 1154.6 133.737 1158.17 Q131.931 1161.71 131.931 1168.84 Q131.931 1175.95 133.737 1179.51 Q135.566 1183.05 139.177 1183.05 Q142.811 1183.05 144.616 1179.51 Q146.445 1175.95 146.445 1168.84 Q146.445 1161.71 144.616 1158.17 Q142.811 1154.6 139.177 1154.6 M139.177 1150.9 Q144.987 1150.9 148.042 1155.51 Q151.121 1160.09 151.121 1168.84 Q151.121 1177.57 148.042 1182.17 Q144.987 1186.76 139.177 1186.76 Q133.366 1186.76 130.288 1182.17 Q127.232 1177.57 127.232 1168.84 Q127.232 1160.09 130.288 1155.51 Q133.366 1150.9 139.177 1150.9 Z" fill="#4c4c4c" fill-rule="evenodd" fill-opacity="1" /><path clip-path="url(#clip440)" d="M111.862 928.501 L100.056 946.95 L111.862 946.95 L111.862 928.501 M110.635 924.427 L116.515 924.427 L116.515 946.95 L121.445 946.95 L121.445 950.839 L116.515 950.839 L116.515 958.987 L111.862 958.987 L111.862 950.839 L96.2602 950.839 L96.2602 946.325 L110.635 924.427 Z" fill="#4c4c4c" fill-rule="evenodd" fill-opacity="1" /><path clip-path="url(#clip440)" d="M139.177 927.505 Q135.566 927.505 133.737 931.07 Q131.931 934.612 131.931 941.741 Q131.931 948.848 133.737 952.413 Q135.566 955.954 139.177 955.954 Q142.811 955.954 144.616 952.413 Q146.445 948.848 146.445 941.741 Q146.445 934.612 144.616 931.07 Q142.811 927.505 139.177 927.505 M139.177 923.802 Q144.987 923.802 148.042 928.408 Q151.121 932.991 151.121 941.741 Q151.121 950.468 148.042 955.075 Q144.987 959.658 139.177 959.658 Q133.366 959.658 130.288 955.075 Q127.232 950.468 127.232 941.741 Q127.232 932.991 130.288 928.408 Q133.366 923.802 139.177 923.802 Z" fill="#4c4c4c" fill-rule="evenodd" fill-opacity="1" /><path clip-path="url(#clip440)" d="M99.0611 697.329 L117.417 697.329 L117.417 701.264 L103.343 701.264 L103.343 709.736 Q104.362 709.389 105.38 709.227 Q106.399 709.041 107.418 709.041 Q113.205 709.041 116.584 712.213 Q119.964 715.384 119.964 720.801 Q119.964 726.379 116.492 729.481 Q113.019 732.56 106.7 732.56 Q104.524 732.56 102.255 732.189 Q100.01 731.819 97.6027 731.078 L97.6027 726.379 Q99.6861 727.514 101.908 728.069 Q104.13 728.625 106.607 728.625 Q110.612 728.625 112.95 726.518 Q115.288 724.412 115.288 720.801 Q115.288 717.19 112.95 715.083 Q110.612 712.977 106.607 712.977 Q104.732 712.977 102.857 713.393 Q101.006 713.81 99.0611 714.69 L99.0611 697.329 Z" fill="#4c4c4c" fill-rule="evenodd" fill-opacity="1" /><path clip-path="url(#clip440)" d="M139.177 700.407 Q135.566 700.407 133.737 703.972 Q131.931 707.514 131.931 714.643 Q131.931 721.75 133.737 725.315 Q135.566 728.856 139.177 728.856 Q142.811 728.856 144.616 725.315 Q146.445 721.75 146.445 714.643 Q146.445 707.514 144.616 703.972 Q142.811 700.407 139.177 700.407 M139.177 696.704 Q144.987 696.704 148.042 701.31 Q151.121 705.893 151.121 714.643 Q151.121 723.37 148.042 727.977 Q144.987 732.56 139.177 732.56 Q133.366 732.56 130.288 727.977 Q127.232 723.37 127.232 714.643 Q127.232 705.893 130.288 701.31 Q133.366 696.704 139.177 696.704 Z" fill="#4c4c4c" fill-rule="evenodd" fill-opacity="1" /><path clip-path="url(#clip440)" d="M109.593 485.647 Q106.445 485.647 104.593 487.8 Q102.765 489.953 102.765 493.703 Q102.765 497.429 104.593 499.605 Q106.445 501.758 109.593 501.758 Q112.742 501.758 114.57 499.605 Q116.422 497.429 116.422 493.703 Q116.422 489.953 114.57 487.8 Q112.742 485.647 109.593 485.647 M118.876 470.994 L118.876 475.254 Q117.117 474.42 115.311 473.98 Q113.529 473.541 111.769 473.541 Q107.14 473.541 104.686 476.666 Q102.255 479.791 101.908 486.11 Q103.274 484.096 105.334 483.031 Q107.394 481.943 109.871 481.943 Q115.08 481.943 118.089 485.115 Q121.121 488.263 121.121 493.703 Q121.121 499.027 117.973 502.244 Q114.825 505.462 109.593 505.462 Q103.598 505.462 100.427 500.878 Q97.2555 496.272 97.2555 487.545 Q97.2555 479.351 101.144 474.49 Q105.033 469.605 111.584 469.605 Q113.343 469.605 115.126 469.953 Q116.931 470.3 118.876 470.994 Z" fill="#4c4c4c" fill-rule="evenodd" fill-opacity="1" /><path clip-path="url(#clip440)" d="M139.177 473.309 Q135.566 473.309 133.737 476.874 Q131.931 480.416 131.931 487.545 Q131.931 494.652 133.737 498.216 Q135.566 501.758 139.177 501.758 Q142.811 501.758 144.616 498.216 Q146.445 494.652 146.445 487.545 Q146.445 480.416 144.616 476.874 Q142.811 473.309 139.177 473.309 M139.177 469.605 Q144.987 469.605 148.042 474.212 Q151.121 478.795 151.121 487.545 Q151.121 496.272 148.042 500.878 Q144.987 505.462 139.177 505.462 Q133.366 505.462 130.288 500.878 Q127.232 496.272 127.232 487.545 Q127.232 478.795 130.288 474.212 Q133.366 469.605 139.177 469.605 Z" fill="#4c4c4c" fill-rule="evenodd" fill-opacity="1" /><path clip-path="url(#clip440)" d="M97.8342 243.132 L120.056 243.132 L120.056 245.123 L107.51 277.692 L102.626 277.692 L114.431 247.068 L97.8342 247.068 L97.8342 243.132 Z" fill="#4c4c4c" fill-rule="evenodd" fill-opacity="1" /><path clip-path="url(#clip440)" d="M139.177 246.211 Q135.566 246.211 133.737 249.776 Q131.931 253.318 131.931 260.447 Q131.931 267.554 133.737 271.118 Q135.566 274.66 139.177 274.66 Q142.811 274.66 144.616 271.118 Q146.445 267.554 146.445 260.447 Q146.445 253.318 144.616 249.776 Q142.811 246.211 139.177 246.211 M139.177 242.507 Q144.987 242.507 148.042 247.114 Q151.121 251.697 151.121 260.447 Q151.121 269.174 148.042 273.78 Q144.987 278.364 139.177 278.364 Q133.366 278.364 130.288 273.78 Q127.232 269.174 127.232 260.447 Q127.232 251.697 130.288 247.114 Q133.366 242.507 139.177 242.507 Z" fill="#4c4c4c" fill-rule="evenodd" fill-opacity="1" /><path clip-path="url(#clip440)" d="M21.7677 1059.5 L39.6235 1059.5 L39.6235 1051.41 Q39.6235 1046.92 37.3 1044.47 Q34.9765 1042.02 30.6797 1042.02 Q26.4147 1042.02 24.0912 1044.47 Q21.7677 1046.92 21.7677 1051.41 L21.7677 1059.5 M16.4842 1065.93 L16.4842 1051.41 Q16.4842 1043.42 20.1126 1039.35 Q23.7092 1035.24 30.6797 1035.24 Q37.7138 1035.24 41.3104 1039.35 Q44.907 1043.42 44.907 1051.41 L44.907 1059.5 L64.0042 1059.5 L64.0042 1065.93 L16.4842 1065.93 Z" fill="#000000" fill-rule="evenodd" fill-opacity="1" /><path clip-path="url(#clip440)" d="M49.9359 1028.62 L28.3562 1028.62 L28.3562 1022.77 L49.7131 1022.77 Q54.7739 1022.77 57.3202 1020.79 Q59.8346 1018.82 59.8346 1014.87 Q59.8346 1010.13 56.8109 1007.39 Q53.7872 1004.62 48.5673 1004.62 L28.3562 1004.62 L28.3562 998.768 L64.0042 998.768 L64.0042 1004.62 L58.5296 1004.62 Q61.7762 1006.76 63.3676 1009.59 Q64.9272 1012.39 64.9272 1016.11 Q64.9272 1022.26 61.1078 1025.44 Q57.2883 1028.62 49.9359 1028.62 M27.4968 1013.89 L27.4968 1013.89 Z" fill="#000000" fill-rule="evenodd" fill-opacity="1" /><path clip-path="url(#clip440)" d="M14.479 986.705 L14.479 980.849 L64.0042 980.849 L64.0042 986.705 L14.479 986.705 Z" fill="#000000" fill-rule="evenodd" fill-opacity="1" /><path clip-path="url(#clip440)" d="M14.479 968.595 L14.479 962.738 L64.0042 962.738 L64.0042 968.595 L14.479 968.595 Z" fill="#000000" fill-rule="evenodd" fill-opacity="1" /><path clip-path="url(#clip440)" d="M32.4621 936.671 Q32.4621 941.381 36.1542 944.119 Q39.8145 946.856 46.212 946.856 Q52.6095 946.856 56.3017 944.15 Q59.9619 941.413 59.9619 936.671 Q59.9619 931.992 56.2698 929.255 Q52.5777 926.517 46.212 926.517 Q39.8781 926.517 36.186 929.255 Q32.4621 931.992 32.4621 936.671 M27.4968 936.671 Q27.4968 929.032 32.4621 924.671 Q37.4273 920.311 46.212 920.311 Q54.9649 920.311 59.9619 924.671 Q64.9272 929.032 64.9272 936.671 Q64.9272 944.341 59.9619 948.702 Q54.9649 953.031 46.212 953.031 Q37.4273 953.031 32.4621 948.702 Q27.4968 944.341 27.4968 936.671 Z" fill="#000000" fill-rule="evenodd" fill-opacity="1" /><path clip-path="url(#clip440)" d="M49.9359 911.208 L28.3562 911.208 L28.3562 905.351 L49.7131 905.351 Q54.7739 905.351 57.3202 903.378 Q59.8346 901.405 59.8346 897.458 Q59.8346 892.715 56.8109 889.978 Q53.7872 887.209 48.5673 887.209 L28.3562 887.209 L28.3562 881.353 L64.0042 881.353 L64.0042 887.209 L58.5296 887.209 Q61.7762 889.342 63.3676 892.174 Q64.9272 894.975 64.9272 898.699 Q64.9272 904.842 61.1078 908.025 Q57.2883 911.208 49.9359 911.208 M27.4968 896.471 L27.4968 896.471 Z" fill="#000000" fill-rule="evenodd" fill-opacity="1" /><path clip-path="url(#clip440)" d="M18.2347 863.497 L28.3562 863.497 L28.3562 851.434 L32.9077 851.434 L32.9077 863.497 L52.2594 863.497 Q56.6199 863.497 57.8613 862.319 Q59.1026 861.11 59.1026 857.449 L59.1026 851.434 L64.0042 851.434 L64.0042 857.449 Q64.0042 864.229 61.4897 866.807 Q58.9434 869.385 52.2594 869.385 L32.9077 869.385 L32.9077 873.682 L28.3562 873.682 L28.3562 869.385 L18.2347 869.385 L18.2347 863.497 Z" fill="#000000" fill-rule="evenodd" fill-opacity="1" /><path clip-path="url(#clip440)" d="M16.4842 829.345 L16.4842 789.145 L21.895 789.145 L21.895 806.015 L64.0042 806.015 L64.0042 812.476 L21.895 812.476 L21.895 829.345 L16.4842 829.345 Z" fill="#000000" fill-rule="evenodd" fill-opacity="1" /><path clip-path="url(#clip440)" d="M32.4621 780.456 Q32.4621 785.167 36.1542 787.904 Q39.8145 790.641 46.212 790.641 Q52.6095 790.641 56.3017 787.936 Q59.9619 785.199 59.9619 780.456 Q59.9619 775.777 56.2698 773.04 Q52.5777 770.303 46.212 770.303 Q39.8781 770.303 36.186 773.04 Q32.4621 775.777 32.4621 780.456 M27.4968 780.456 Q27.4968 772.817 32.4621 768.457 Q37.4273 764.096 46.212 764.096 Q54.9649 764.096 59.9619 768.457 Q64.9272 772.817 64.9272 780.456 Q64.9272 788.127 59.9619 792.487 Q54.9649 796.816 46.212 796.816 Q37.4273 796.816 32.4621 792.487 Q27.4968 788.127 27.4968 780.456 Z" fill="#000000" fill-rule="evenodd" fill-opacity="1" /><path clip-path="url(#clip440)" d="M33.8307 733.732 Q33.2578 734.719 33.0032 735.896 Q32.7167 737.042 32.7167 738.443 Q32.7167 743.408 35.9632 746.081 Q39.1779 748.723 45.2253 748.723 L64.0042 748.723 L64.0042 754.611 L28.3562 754.611 L28.3562 748.723 L33.8944 748.723 Q30.6479 746.877 29.0883 743.917 Q27.4968 740.957 27.4968 736.724 Q27.4968 736.119 27.5923 735.387 Q27.656 734.655 27.8151 733.764 L33.8307 733.732 Z" fill="#000000" fill-rule="evenodd" fill-opacity="1" /><path clip-path="url(#clip440)" d="M46.212 725.234 Q52.6732 725.234 56.3653 722.592 Q60.0256 719.918 60.0256 715.271 Q60.0256 710.624 56.3653 707.951 Q52.6732 705.277 46.212 705.277 Q39.7508 705.277 36.0905 707.951 Q32.3984 710.624 32.3984 715.271 Q32.3984 719.918 36.0905 722.592 Q39.7508 725.234 46.212 725.234 M58.657 705.277 Q61.8398 707.123 63.3994 709.956 Q64.9272 712.757 64.9272 716.704 Q64.9272 723.165 59.771 727.239 Q54.6147 731.281 46.212 731.281 Q37.8093 731.281 32.6531 727.239 Q27.4968 723.165 27.4968 716.704 Q27.4968 712.757 29.0564 709.956 Q30.5842 707.123 33.7671 705.277 L28.3562 705.277 L28.3562 699.421 L77.5631 699.421 L77.5631 705.277 L58.657 705.277 Z" fill="#000000" fill-rule="evenodd" fill-opacity="1" /><path clip-path="url(#clip440)" d="M49.9359 687.963 L28.3562 687.963 L28.3562 682.106 L49.7131 682.106 Q54.7739 682.106 57.3202 680.133 Q59.8346 678.159 59.8346 674.213 Q59.8346 669.47 56.8109 666.733 Q53.7872 663.964 48.5673 663.964 L28.3562 663.964 L28.3562 658.107 L64.0042 658.107 L64.0042 663.964 L58.5296 663.964 Q61.7762 666.096 63.3676 668.929 Q64.9272 671.73 64.9272 675.454 Q64.9272 681.597 61.1078 684.78 Q57.2883 687.963 49.9359 687.963 M27.4968 673.226 L27.4968 673.226 Z" fill="#000000" fill-rule="evenodd" fill-opacity="1" /><path clip-path="url(#clip440)" d="M44.7161 615.553 L47.5806 615.553 L47.5806 642.48 Q53.6281 642.098 56.8109 638.851 Q59.9619 635.573 59.9619 629.748 Q59.9619 626.374 59.1344 623.223 Q58.3069 620.04 56.6518 616.921 L62.1899 616.921 Q63.5267 620.072 64.227 623.382 Q64.9272 626.693 64.9272 630.098 Q64.9272 638.628 59.9619 643.625 Q54.9967 648.591 46.5303 648.591 Q37.7774 648.591 32.6531 643.88 Q27.4968 639.138 27.4968 631.117 Q27.4968 623.924 32.1438 619.754 Q36.7589 615.553 44.7161 615.553 M42.9973 621.409 Q38.1912 621.473 35.3266 624.114 Q32.4621 626.724 32.4621 631.053 Q32.4621 635.955 35.2312 638.915 Q38.0002 641.843 43.0292 642.289 L42.9973 621.409 Z" fill="#000000" fill-rule="evenodd" fill-opacity="1" /><path clip-path="url(#clip440)" d="M28.3562 585.22 L28.3562 579.364 L64.0042 579.364 L64.0042 585.22 L28.3562 585.22 M14.479 585.22 L14.479 579.364 L21.895 579.364 L21.895 585.22 L14.479 585.22 Z" fill="#000000" fill-rule="evenodd" fill-opacity="1" /><path clip-path="url(#clip440)" d="M42.4881 537.477 L64.0042 537.477 L64.0042 543.334 L42.679 543.334 Q37.6183 543.334 35.1038 545.307 Q32.5894 547.28 32.5894 551.227 Q32.5894 555.97 35.6131 558.707 Q38.6368 561.444 43.8567 561.444 L64.0042 561.444 L64.0042 567.332 L28.3562 567.332 L28.3562 561.444 L33.8944 561.444 Q30.6797 559.343 29.0883 556.511 Q27.4968 553.646 27.4968 549.922 Q27.4968 543.779 31.3163 540.628 Q35.1038 537.477 42.4881 537.477 Z" fill="#000000" fill-rule="evenodd" fill-opacity="1" /><path clip-path="url(#clip440)" d="M16.4842 504.821 L16.4842 496.164 L56.238 475.093 L16.4842 475.093 L16.4842 468.855 L64.0042 468.855 L64.0042 477.512 L24.2503 498.583 L64.0042 498.583 L64.0042 504.821 L16.4842 504.821 Z" fill="#000000" fill-rule="evenodd" fill-opacity="1" /><path clip-path="url(#clip440)" d="M35.1993 428.56 Q31.2526 426.364 29.3747 423.308 Q27.4968 420.253 27.4968 416.115 Q27.4968 410.545 31.4117 407.521 Q35.2948 404.498 42.4881 404.498 L64.0042 404.498 L64.0042 410.386 L42.679 410.386 Q37.5546 410.386 35.072 412.2 Q32.5894 414.014 32.5894 417.738 Q32.5894 422.29 35.6131 424.932 Q38.6368 427.573 43.8567 427.573 L64.0042 427.573 L64.0042 433.462 L42.679 433.462 Q37.5228 433.462 35.072 435.276 Q32.5894 437.09 32.5894 440.878 Q32.5894 445.365 35.6449 448.007 Q38.6686 450.649 43.8567 450.649 L64.0042 450.649 L64.0042 456.537 L28.3562 456.537 L28.3562 450.649 L33.8944 450.649 Q30.616 448.644 29.0564 445.843 Q27.4968 443.042 27.4968 439.191 Q27.4968 435.308 29.4702 432.602 Q31.4436 429.865 35.1993 428.56 Z" fill="#000000" fill-rule="evenodd" fill-opacity="1" /><polyline clip-path="url(#clip442)" style="stroke:#009af9; stroke-linecap:butt; stroke-linejoin:round; stroke-width:4; stroke-opacity:1; fill:none" points="
  265.903,699.596 288.415,646.034 310.927,598.585 333.439,556.334 355.951,518.523 378.463,484.523 400.974,453.812 423.486,425.954 445.998,400.582 468.51,377.389 
  491.022,356.113 513.534,336.532 536.046,318.456 558.558,301.723 581.07,286.19 603.582,271.736 626.093,258.254 648.605,245.651 671.117,233.845 693.629,222.765 
  716.141,212.345 738.653,202.531 761.165,193.271 783.677,184.52 806.189,176.238 828.701,168.39 851.212,160.941 873.724,153.864 896.236,147.131 918.748,140.718 
  941.26,134.603 963.772,128.766 986.284,123.189 1008.8,117.856 1031.31,112.75 1053.82,107.858 1076.33,103.167 1098.84,98.6646 1121.36,94.3403 1143.87,90.1838 
  1166.38,86.1857 1188.89,150.982 1211.4,212.277 1233.91,270.318 1256.43,325.333 1278.94,377.526 1301.45,427.089 1323.96,474.194 1346.47,519.002 1368.99,561.658 
  1391.5,602.3 1414.01,641.05 1436.52,678.026 1459.03,713.333 1481.55,747.07 1504.06,779.329 1526.57,810.196 1549.08,839.748 1571.59,868.06 1594.1,895.2 
  1616.62,921.231 1639.13,946.214 1661.64,970.203 1684.15,993.251 1706.66,1015.41 1729.18,1036.71 1751.69,1057.22 1774.2,1076.96 1796.71,1095.97 1819.22,1114.29 
  1841.74,1131.95 1864.25,1148.98 1886.76,1165.42 1909.27,1181.28 1931.78,1196.6 1954.3,1211.4 1976.81,1225.71 1999.32,1239.54 2021.83,1252.91 2044.34,1265.86 
  2066.85,1278.38 2089.37,1290.51 2111.88,1302.26 2134.39,1313.64 2156.9,1324.67 2179.41,1335.36 2201.93,1345.73 2224.44,1355.79 2246.95,1365.56 2269.46,1375.04 
  2291.97,1384.24 
  "/>
<path clip-path="url(#clip440)" d="
M1792.29 196.789 L2281.17 196.789 L2281.17 93.1086 L1792.29 93.1086  Z
  " fill="#eaeaea" fill-rule="evenodd" fill-opacity="1"/>
<polyline clip-path="url(#clip440)" style="stroke:#ffffff; stroke-linecap:butt; stroke-linejoin:round; stroke-width:4; stroke-opacity:1; fill:none" points="
  1792.29,196.789 2281.17,196.789 2281.17,93.1086 1792.29,93.1086 1792.29,196.789 
  "/>
<polyline clip-path="url(#clip440)" style="stroke:#009af9; stroke-linecap:butt; stroke-linejoin:round; stroke-width:4; stroke-opacity:1; fill:none" points="
  1816.15,144.949 1959.33,144.949 
  "/>
<path clip-path="url(#clip440)" d="M1996.38 162.229 L1983.19 127.669 L1988.07 127.669 L1999.02 156.766 L2009.99 127.669 L2014.86 127.669 L2001.68 162.229 L1996.38 162.229 Z" fill="#000000" fill-rule="evenodd" fill-opacity="1" /><path clip-path="url(#clip440)" d="M2027.29 127.669 L2031.22 127.669 L2019.18 166.627 L2015.25 166.627 L2027.29 127.669 Z" fill="#000000" fill-rule="evenodd" fill-opacity="1" /><path clip-path="url(#clip440)" d="M2035.87 127.669 L2055.74 127.669 L2055.74 131.604 L2040.55 131.604 L2040.55 141.789 L2054.25 141.789 L2054.25 145.724 L2040.55 145.724 L2040.55 162.229 L2035.87 162.229 L2035.87 127.669 Z" fill="#000000" fill-rule="evenodd" fill-opacity="1" /><path clip-path="url(#clip440)" d="M2096.68 137.298 L2096.68 141.28 Q2094.88 140.284 2093.05 139.798 Q2091.24 139.289 2089.39 139.289 Q2085.25 139.289 2082.96 141.928 Q2080.67 144.544 2080.67 149.289 Q2080.67 154.034 2082.96 156.673 Q2085.25 159.289 2089.39 159.289 Q2091.24 159.289 2093.05 158.803 Q2094.88 158.293 2096.68 157.298 L2096.68 161.233 Q2094.9 162.067 2092.98 162.483 Q2091.08 162.9 2088.93 162.9 Q2083.07 162.9 2079.62 159.219 Q2076.18 155.539 2076.18 149.289 Q2076.18 142.946 2079.65 139.312 Q2083.14 135.678 2089.21 135.678 Q2091.18 135.678 2093.05 136.095 Q2094.93 136.488 2096.68 137.298 Z" fill="#000000" fill-rule="evenodd" fill-opacity="1" /><path clip-path="url(#clip440)" d="M2114.14 139.289 Q2110.71 139.289 2108.72 141.974 Q2106.73 144.636 2106.73 149.289 Q2106.73 153.942 2108.7 156.627 Q2110.69 159.289 2114.14 159.289 Q2117.54 159.289 2119.53 156.604 Q2121.52 153.918 2121.52 149.289 Q2121.52 144.682 2119.53 141.997 Q2117.54 139.289 2114.14 139.289 M2114.14 135.678 Q2119.69 135.678 2122.86 139.289 Q2126.04 142.9 2126.04 149.289 Q2126.04 155.655 2122.86 159.289 Q2119.69 162.9 2114.14 162.9 Q2108.56 162.9 2105.39 159.289 Q2102.24 155.655 2102.24 149.289 Q2102.24 142.9 2105.39 139.289 Q2108.56 135.678 2114.14 135.678 Z" fill="#000000" fill-rule="evenodd" fill-opacity="1" /><path clip-path="url(#clip440)" d="M2154.65 146.581 L2154.65 162.229 L2150.39 162.229 L2150.39 146.719 Q2150.39 143.039 2148.95 141.21 Q2147.52 139.382 2144.65 139.382 Q2141.2 139.382 2139.21 141.581 Q2137.22 143.78 2137.22 147.576 L2137.22 162.229 L2132.93 162.229 L2132.93 136.303 L2137.22 136.303 L2137.22 140.331 Q2138.74 137.993 2140.8 136.835 Q2142.89 135.678 2145.6 135.678 Q2150.06 135.678 2152.36 138.456 Q2154.65 141.21 2154.65 146.581 Z" fill="#000000" fill-rule="evenodd" fill-opacity="1" /><path clip-path="url(#clip440)" d="M2167.36 128.942 L2167.36 136.303 L2176.13 136.303 L2176.13 139.613 L2167.36 139.613 L2167.36 153.687 Q2167.36 156.858 2168.21 157.761 Q2169.09 158.664 2171.75 158.664 L2176.13 158.664 L2176.13 162.229 L2171.75 162.229 Q2166.82 162.229 2164.95 160.4 Q2163.07 158.548 2163.07 153.687 L2163.07 139.613 L2159.95 139.613 L2159.95 136.303 L2163.07 136.303 L2163.07 128.942 L2167.36 128.942 Z" fill="#000000" fill-rule="evenodd" fill-opacity="1" /><path clip-path="url(#clip440)" d="M2196.75 140.284 Q2196.04 139.868 2195.18 139.682 Q2194.35 139.474 2193.33 139.474 Q2189.72 139.474 2187.77 141.835 Q2185.85 144.173 2185.85 148.571 L2185.85 162.229 L2181.57 162.229 L2181.57 136.303 L2185.85 136.303 L2185.85 140.331 Q2187.19 137.969 2189.35 136.835 Q2191.5 135.678 2194.58 135.678 Q2195.02 135.678 2195.55 135.747 Q2196.08 135.794 2196.73 135.909 L2196.75 140.284 Z" fill="#000000" fill-rule="evenodd" fill-opacity="1" /><path clip-path="url(#clip440)" d="M2210.23 139.289 Q2206.8 139.289 2204.81 141.974 Q2202.82 144.636 2202.82 149.289 Q2202.82 153.942 2204.79 156.627 Q2206.78 159.289 2210.23 159.289 Q2213.63 159.289 2215.62 156.604 Q2217.61 153.918 2217.61 149.289 Q2217.61 144.682 2215.62 141.997 Q2213.63 139.289 2210.23 139.289 M2210.23 135.678 Q2215.78 135.678 2218.95 139.289 Q2222.12 142.9 2222.12 149.289 Q2222.12 155.655 2218.95 159.289 Q2215.78 162.9 2210.23 162.9 Q2204.65 162.9 2201.48 159.289 Q2198.33 155.655 2198.33 149.289 Q2198.33 142.9 2201.48 139.289 Q2204.65 135.678 2210.23 135.678 Z" fill="#000000" fill-rule="evenodd" fill-opacity="1" /><path clip-path="url(#clip440)" d="M2229.18 126.21 L2233.44 126.21 L2233.44 162.229 L2229.18 162.229 L2229.18 126.21 Z" fill="#000000" fill-rule="evenodd" fill-opacity="1" /></svg>
