<?xml version="1.0" encoding="utf-8"?>
<svg xmlns="http://www.w3.org/2000/svg" xmlns:xlink="http://www.w3.org/1999/xlink" width="600" height="400" viewBox="0 0 2400 1600">
<defs>
  <clipPath id="clip510">
    <rect x="0" y="0" width="2400" height="1600"/>
  </clipPath>
</defs>
<path clip-path="url(#clip510)" d="
M0 1600 L2400 1600 L2400 0 L0 0  Z
  " fill="#ffffff" fill-rule="evenodd" fill-opacity="1"/>
<defs>
  <clipPath id="clip511">
    <rect x="480" y="0" width="1681" height="1600"/>
  </clipPath>
</defs>
<path clip-path="url(#clip510)" d="
M264.287 1423.18 L2352.76 1423.18 L2352.76 47.2441 L264.287 47.2441  Z
  " fill="#eaeaea" fill-rule="evenodd" fill-opacity="1"/>
<defs>
  <clipPath id="clip512">
    <rect x="264" y="47" width="2089" height="1377"/>
  </clipPath>
</defs>
<polyline clip-path="url(#clip512)" style="stroke:#ffffff; stroke-linecap:butt; stroke-linejoin:round; stroke-width:4; stroke-opacity:1; fill:none" points="
  323.395,1423.18 323.395,47.2441 
  "/>
<polyline clip-path="url(#clip512)" style="stroke:#ffffff; stroke-linecap:butt; stroke-linejoin:round; stroke-width:4; stroke-opacity:1; fill:none" points="
  815.958,1423.18 815.958,47.2441 
  "/>
<polyline clip-path="url(#clip512)" style="stroke:#ffffff; stroke-linecap:butt; stroke-linejoin:round; stroke-width:4; stroke-opacity:1; fill:none" points="
  1308.52,1423.18 1308.52,47.2441 
  "/>
<polyline clip-path="url(#clip512)" style="stroke:#ffffff; stroke-linecap:butt; stroke-linejoin:round; stroke-width:4; stroke-opacity:1; fill:none" points="
  1801.08,1423.18 1801.08,47.2441 
  "/>
<polyline clip-path="url(#clip512)" style="stroke:#ffffff; stroke-linecap:butt; stroke-linejoin:round; stroke-width:4; stroke-opacity:1; fill:none" points="
  2293.65,1423.18 2293.65,47.2441 
  "/>
<polyline clip-path="url(#clip512)" style="stroke:#ffffff; stroke-linecap:butt; stroke-linejoin:round; stroke-width:2; stroke-opacity:1; fill:none" points="
  569.677,1423.18 569.677,47.2441 
  "/>
<polyline clip-path="url(#clip512)" style="stroke:#ffffff; stroke-linecap:butt; stroke-linejoin:round; stroke-width:2; stroke-opacity:1; fill:none" points="
  1062.24,1423.18 1062.24,47.2441 
  "/>
<polyline clip-path="url(#clip512)" style="stroke:#ffffff; stroke-linecap:butt; stroke-linejoin:round; stroke-width:2; stroke-opacity:1; fill:none" points="
  1554.8,1423.18 1554.8,47.2441 
  "/>
<polyline clip-path="url(#clip512)" style="stroke:#ffffff; stroke-linecap:butt; stroke-linejoin:round; stroke-width:2; stroke-opacity:1; fill:none" points="
  2047.37,1423.18 2047.37,47.2441 
  "/>
<polyline clip-path="url(#clip510)" style="stroke:#ffffff; stroke-linecap:butt; stroke-linejoin:round; stroke-width:4; stroke-opacity:1; fill:none" points="
  264.287,1423.18 2352.76,1423.18 
  "/>
<polyline clip-path="url(#clip510)" style="stroke:#333333; stroke-linecap:butt; stroke-linejoin:round; stroke-width:4; stroke-opacity:1; fill:none" points="
  323.395,1423.18 323.395,1442.08 
  "/>
<polyline clip-path="url(#clip510)" style="stroke:#333333; stroke-linecap:butt; stroke-linejoin:round; stroke-width:4; stroke-opacity:1; fill:none" points="
  815.958,1423.18 815.958,1442.08 
  "/>
<polyline clip-path="url(#clip510)" style="stroke:#333333; stroke-linecap:butt; stroke-linejoin:round; stroke-width:4; stroke-opacity:1; fill:none" points="
  1308.52,1423.18 1308.52,1442.08 
  "/>
<polyline clip-path="url(#clip510)" style="stroke:#333333; stroke-linecap:butt; stroke-linejoin:round; stroke-width:4; stroke-opacity:1; fill:none" points="
  1801.08,1423.18 1801.08,1442.08 
  "/>
<polyline clip-path="url(#clip510)" style="stroke:#333333; stroke-linecap:butt; stroke-linejoin:round; stroke-width:4; stroke-opacity:1; fill:none" points="
  2293.65,1423.18 2293.65,1442.08 
  "/>
<polyline clip-path="url(#clip510)" style="stroke:#333333; stroke-linecap:butt; stroke-linejoin:round; stroke-width:4; stroke-opacity:1; fill:none" points="
  569.677,1423.18 569.677,1432.63 
  "/>
<polyline clip-path="url(#clip510)" style="stroke:#333333; stroke-linecap:butt; stroke-linejoin:round; stroke-width:4; stroke-opacity:1; fill:none" points="
  1062.24,1423.18 1062.24,1432.63 
  "/>
<polyline clip-path="url(#clip510)" style="stroke:#333333; stroke-linecap:butt; stroke-linejoin:round; stroke-width:4; stroke-opacity:1; fill:none" points="
  1554.8,1423.18 1554.8,1432.63 
  "/>
<polyline clip-path="url(#clip510)" style="stroke:#333333; stroke-linecap:butt; stroke-linejoin:round; stroke-width:4; stroke-opacity:1; fill:none" points="
  2047.37,1423.18 2047.37,1432.63 
  "/>
<path clip-path="url(#clip510)" d="M323.395 1463.7 Q319.784 1463.7 317.955 1467.26 Q316.15 1470.8 316.15 1477.93 Q316.15 1485.04 317.955 1488.61 Q319.784 1492.15 323.395 1492.15 Q327.029 1492.15 328.835 1488.61 Q330.663 1485.04 330.663 1477.93 Q330.663 1470.8 328.835 1467.26 Q327.029 1463.7 323.395 1463.7 M323.395 1459.99 Q329.205 1459.99 332.261 1464.6 Q335.339 1469.18 335.339 1477.93 Q335.339 1486.66 332.261 1491.27 Q329.205 1495.85 323.395 1495.85 Q317.585 1495.85 314.506 1491.27 Q311.451 1486.66 311.451 1477.93 Q311.451 1469.18 314.506 1464.6 Q317.585 1459.99 323.395 1459.99 Z" fill="#4c4c4c" fill-rule="evenodd" fill-opacity="1" /><path clip-path="url(#clip510)" d="M806.236 1460.62 L824.592 1460.62 L824.592 1464.56 L810.518 1464.56 L810.518 1473.03 Q811.537 1472.68 812.556 1472.52 Q813.574 1472.33 814.593 1472.33 Q820.38 1472.33 823.759 1475.5 Q827.139 1478.68 827.139 1484.09 Q827.139 1489.67 823.667 1492.77 Q820.194 1495.85 813.875 1495.85 Q811.699 1495.85 809.431 1495.48 Q807.185 1495.11 804.778 1494.37 L804.778 1489.67 Q806.861 1490.8 809.083 1491.36 Q811.306 1491.92 813.782 1491.92 Q817.787 1491.92 820.125 1489.81 Q822.463 1487.7 822.463 1484.09 Q822.463 1480.48 820.125 1478.37 Q817.787 1476.27 813.782 1476.27 Q811.907 1476.27 810.032 1476.68 Q808.181 1477.1 806.236 1477.98 L806.236 1460.62 Z" fill="#4c4c4c" fill-rule="evenodd" fill-opacity="1" /><path clip-path="url(#clip510)" d="M1283.21 1491.24 L1290.85 1491.24 L1290.85 1464.88 L1282.54 1466.55 L1282.54 1462.29 L1290.8 1460.62 L1295.48 1460.62 L1295.48 1491.24 L1303.12 1491.24 L1303.12 1495.18 L1283.21 1495.18 L1283.21 1491.24 Z" fill="#4c4c4c" fill-rule="evenodd" fill-opacity="1" /><path clip-path="url(#clip510)" d="M1322.56 1463.7 Q1318.95 1463.7 1317.12 1467.26 Q1315.32 1470.8 1315.32 1477.93 Q1315.32 1485.04 1317.12 1488.61 Q1318.95 1492.15 1322.56 1492.15 Q1326.2 1492.15 1328 1488.61 Q1329.83 1485.04 1329.83 1477.93 Q1329.83 1470.8 1328 1467.26 Q1326.2 1463.7 1322.56 1463.7 M1322.56 1459.99 Q1328.37 1459.99 1331.43 1464.6 Q1334.51 1469.18 1334.51 1477.93 Q1334.51 1486.66 1331.43 1491.27 Q1328.37 1495.85 1322.56 1495.85 Q1316.75 1495.85 1313.67 1491.27 Q1310.62 1486.66 1310.62 1477.93 Q1310.62 1469.18 1313.67 1464.6 Q1316.75 1459.99 1322.56 1459.99 Z" fill="#4c4c4c" fill-rule="evenodd" fill-opacity="1" /><path clip-path="url(#clip510)" d="M1776.27 1491.24 L1783.91 1491.24 L1783.91 1464.88 L1775.6 1466.55 L1775.6 1462.29 L1783.86 1460.62 L1788.54 1460.62 L1788.54 1491.24 L1796.18 1491.24 L1796.18 1495.18 L1776.27 1495.18 L1776.27 1491.24 Z" fill="#4c4c4c" fill-rule="evenodd" fill-opacity="1" /><path clip-path="url(#clip510)" d="M1805.67 1460.62 L1824.02 1460.62 L1824.02 1464.56 L1809.95 1464.56 L1809.95 1473.03 Q1810.97 1472.68 1811.99 1472.52 Q1813.01 1472.33 1814.02 1472.33 Q1819.81 1472.33 1823.19 1475.5 Q1826.57 1478.68 1826.57 1484.09 Q1826.57 1489.67 1823.1 1492.77 Q1819.63 1495.85 1813.31 1495.85 Q1811.13 1495.85 1808.86 1495.48 Q1806.62 1495.11 1804.21 1494.37 L1804.21 1489.67 Q1806.29 1490.8 1808.52 1491.36 Q1810.74 1491.92 1813.21 1491.92 Q1817.22 1491.92 1819.56 1489.81 Q1821.9 1487.7 1821.9 1484.09 Q1821.9 1480.48 1819.56 1478.37 Q1817.22 1476.27 1813.21 1476.27 Q1811.34 1476.27 1809.46 1476.68 Q1807.61 1477.1 1805.67 1477.98 L1805.67 1460.62 Z" fill="#4c4c4c" fill-rule="evenodd" fill-opacity="1" /><path clip-path="url(#clip510)" d="M2272.42 1491.24 L2288.74 1491.24 L2288.74 1495.18 L2266.8 1495.18 L2266.8 1491.24 Q2269.46 1488.49 2274.04 1483.86 Q2278.65 1479.21 2279.83 1477.87 Q2282.07 1475.34 2282.95 1473.61 Q2283.86 1471.85 2283.86 1470.16 Q2283.86 1467.4 2281.91 1465.67 Q2279.99 1463.93 2276.89 1463.93 Q2274.69 1463.93 2272.24 1464.69 Q2269.81 1465.46 2267.03 1467.01 L2267.03 1462.29 Q2269.85 1461.15 2272.31 1460.57 Q2274.76 1459.99 2276.8 1459.99 Q2282.17 1459.99 2285.36 1462.68 Q2288.56 1465.37 2288.56 1469.86 Q2288.56 1471.99 2287.75 1473.91 Q2286.96 1475.8 2284.85 1478.4 Q2284.27 1479.07 2281.17 1482.29 Q2278.07 1485.48 2272.42 1491.24 Z" fill="#4c4c4c" fill-rule="evenodd" fill-opacity="1" /><path clip-path="url(#clip510)" d="M2308.56 1463.7 Q2304.94 1463.7 2303.12 1467.26 Q2301.31 1470.8 2301.31 1477.93 Q2301.31 1485.04 2303.12 1488.61 Q2304.94 1492.15 2308.56 1492.15 Q2312.19 1492.15 2314 1488.61 Q2315.82 1485.04 2315.82 1477.93 Q2315.82 1470.8 2314 1467.26 Q2312.19 1463.7 2308.56 1463.7 M2308.56 1459.99 Q2314.37 1459.99 2317.42 1464.6 Q2320.5 1469.18 2320.5 1477.93 Q2320.5 1486.66 2317.42 1491.27 Q2314.37 1495.85 2308.56 1495.85 Q2302.75 1495.85 2299.67 1491.27 Q2296.61 1486.66 2296.61 1477.93 Q2296.61 1469.18 2299.67 1464.6 Q2302.75 1459.99 2308.56 1459.99 Z" fill="#4c4c4c" fill-rule="evenodd" fill-opacity="1" /><path clip-path="url(#clip510)" d="M1162.84 1520.52 L1203.04 1520.52 L1203.04 1525.93 L1186.17 1525.93 L1186.17 1568.04 L1179.71 1568.04 L1179.71 1525.93 L1162.84 1525.93 L1162.84 1520.52 Z" fill="#000000" fill-rule="evenodd" fill-opacity="1" /><path clip-path="url(#clip510)" d="M1206.99 1532.4 L1212.85 1532.4 L1212.85 1568.04 L1206.99 1568.04 L1206.99 1532.4 M1206.99 1518.52 L1212.85 1518.52 L1212.85 1525.93 L1206.99 1525.93 L1206.99 1518.52 Z" fill="#000000" fill-rule="evenodd" fill-opacity="1" /><path clip-path="url(#clip510)" d="M1252.85 1539.24 Q1255.05 1535.29 1258.11 1533.41 Q1261.16 1531.54 1265.3 1531.54 Q1270.87 1531.54 1273.89 1535.45 Q1276.92 1539.33 1276.92 1546.53 L1276.92 1568.04 L1271.03 1568.04 L1271.03 1546.72 Q1271.03 1541.59 1269.21 1539.11 Q1267.4 1536.63 1263.68 1536.63 Q1259.12 1536.63 1256.48 1539.65 Q1253.84 1542.68 1253.84 1547.9 L1253.84 1568.04 L1247.95 1568.04 L1247.95 1546.72 Q1247.95 1541.56 1246.14 1539.11 Q1244.32 1536.63 1240.54 1536.63 Q1236.05 1536.63 1233.41 1539.68 Q1230.76 1542.71 1230.76 1547.9 L1230.76 1568.04 L1224.88 1568.04 L1224.88 1532.4 L1230.76 1532.4 L1230.76 1537.93 Q1232.77 1534.66 1235.57 1533.1 Q1238.37 1531.54 1242.22 1531.54 Q1246.11 1531.54 1248.81 1533.51 Q1251.55 1535.48 1252.85 1539.24 Z" fill="#000000" fill-rule="evenodd" fill-opacity="1" /><path clip-path="url(#clip510)" d="M1319.09 1548.76 L1319.09 1551.62 L1292.16 1551.62 Q1292.54 1557.67 1295.79 1560.85 Q1299.07 1564 1304.89 1564 Q1308.27 1564 1311.42 1563.17 Q1314.6 1562.35 1317.72 1560.69 L1317.72 1566.23 Q1314.57 1567.57 1311.26 1568.27 Q1307.95 1568.97 1304.54 1568.97 Q1296.01 1568.97 1291.02 1564 Q1286.05 1559.04 1286.05 1550.57 Q1286.05 1541.82 1290.76 1536.69 Q1295.5 1531.54 1303.52 1531.54 Q1310.72 1531.54 1314.89 1536.18 Q1319.09 1540.8 1319.09 1548.76 M1313.23 1547.04 Q1313.17 1542.23 1310.53 1539.37 Q1307.92 1536.5 1303.59 1536.5 Q1298.69 1536.5 1295.73 1539.27 Q1292.8 1542.04 1292.35 1547.07 L1313.23 1547.04 Z" fill="#000000" fill-rule="evenodd" fill-opacity="1" /><path clip-path="url(#clip510)" d="M1349.42 1532.4 L1355.28 1532.4 L1355.28 1568.04 L1349.42 1568.04 L1349.42 1532.4 M1349.42 1518.52 L1355.28 1518.52 L1355.28 1525.93 L1349.42 1525.93 L1349.42 1518.52 Z" fill="#000000" fill-rule="evenodd" fill-opacity="1" /><path clip-path="url(#clip510)" d="M1397.16 1546.53 L1397.16 1568.04 L1391.31 1568.04 L1391.31 1546.72 Q1391.31 1541.66 1389.33 1539.14 Q1387.36 1536.63 1383.41 1536.63 Q1378.67 1536.63 1375.93 1539.65 Q1373.2 1542.68 1373.2 1547.9 L1373.2 1568.04 L1367.31 1568.04 L1367.31 1532.4 L1373.2 1532.4 L1373.2 1537.93 Q1375.3 1534.72 1378.13 1533.13 Q1381 1531.54 1384.72 1531.54 Q1390.86 1531.54 1394.01 1535.36 Q1397.16 1539.14 1397.16 1546.53 Z" fill="#000000" fill-rule="evenodd" fill-opacity="1" /><path clip-path="url(#clip510)" d="M1452.29 1533.45 L1452.29 1538.98 Q1449.81 1537.71 1447.13 1537.07 Q1444.46 1536.44 1441.6 1536.44 Q1437.24 1536.44 1435.04 1537.77 Q1432.88 1539.11 1432.88 1541.79 Q1432.88 1543.82 1434.44 1545 Q1435.99 1546.15 1440.71 1547.2 L1442.71 1547.64 Q1448.95 1548.98 1451.56 1551.43 Q1454.2 1553.85 1454.2 1558.21 Q1454.2 1563.17 1450.25 1566.07 Q1446.34 1568.97 1439.46 1568.97 Q1436.6 1568.97 1433.48 1568.39 Q1430.39 1567.85 1426.96 1566.74 L1426.96 1560.69 Q1430.2 1562.38 1433.35 1563.24 Q1436.5 1564.07 1439.59 1564.07 Q1443.73 1564.07 1445.96 1562.66 Q1448.19 1561.23 1448.19 1558.65 Q1448.19 1556.27 1446.56 1554.99 Q1444.97 1553.72 1439.53 1552.54 L1437.49 1552.07 Q1432.05 1550.92 1429.63 1548.56 Q1427.21 1546.18 1427.21 1542.04 Q1427.21 1537.01 1430.78 1534.27 Q1434.34 1531.54 1440.9 1531.54 Q1444.14 1531.54 1447.01 1532.01 Q1449.87 1532.49 1452.29 1533.45 Z" fill="#000000" fill-rule="evenodd" fill-opacity="1" /><polyline clip-path="url(#clip512)" style="stroke:#ffffff; stroke-linecap:butt; stroke-linejoin:round; stroke-width:4; stroke-opacity:1; fill:none" points="
  264.287,1384.24 2352.76,1384.24 
  "/>
<polyline clip-path="url(#clip512)" style="stroke:#ffffff; stroke-linecap:butt; stroke-linejoin:round; stroke-width:4; stroke-opacity:1; fill:none" points="
  264.287,939.7 2352.76,939.7 
  "/>
<polyline clip-path="url(#clip512)" style="stroke:#ffffff; stroke-linecap:butt; stroke-linejoin:round; stroke-width:4; stroke-opacity:1; fill:none" points="
  264.287,495.161 2352.76,495.161 
  "/>
<polyline clip-path="url(#clip512)" style="stroke:#ffffff; stroke-linecap:butt; stroke-linejoin:round; stroke-width:4; stroke-opacity:1; fill:none" points="
  264.287,50.6226 2352.76,50.6226 
  "/>
<polyline clip-path="url(#clip512)" style="stroke:#ffffff; stroke-linecap:butt; stroke-linejoin:round; stroke-width:2; stroke-opacity:1; fill:none" points="
  264.287,1161.97 2352.76,1161.97 
  "/>
<polyline clip-path="url(#clip512)" style="stroke:#ffffff; stroke-linecap:butt; stroke-linejoin:round; stroke-width:2; stroke-opacity:1; fill:none" points="
  264.287,717.43 2352.76,717.43 
  "/>
<polyline clip-path="url(#clip512)" style="stroke:#ffffff; stroke-linecap:butt; stroke-linejoin:round; stroke-width:2; stroke-opacity:1; fill:none" points="
  264.287,272.892 2352.76,272.892 
  "/>
<polyline clip-path="url(#clip510)" style="stroke:#ffffff; stroke-linecap:butt; stroke-linejoin:round; stroke-width:4; stroke-opacity:1; fill:none" points="
  264.287,1423.18 264.287,47.2441 
  "/>
<polyline clip-path="url(#clip510)" style="stroke:#333333; stroke-linecap:butt; stroke-linejoin:round; stroke-width:4; stroke-opacity:1; fill:none" points="
  264.287,1384.24 245.39,1384.24 
  "/>
<polyline clip-path="url(#clip510)" style="stroke:#333333; stroke-linecap:butt; stroke-linejoin:round; stroke-width:4; stroke-opacity:1; fill:none" points="
  264.287,939.7 245.39,939.7 
  "/>
<polyline clip-path="url(#clip510)" style="stroke:#333333; stroke-linecap:butt; stroke-linejoin:round; stroke-width:4; stroke-opacity:1; fill:none" points="
  264.287,495.161 245.39,495.161 
  "/>
<polyline clip-path="url(#clip510)" style="stroke:#333333; stroke-linecap:butt; stroke-linejoin:round; stroke-width:4; stroke-opacity:1; fill:none" points="
  264.287,50.6226 245.39,50.6226 
  "/>
<polyline clip-path="url(#clip510)" style="stroke:#333333; stroke-linecap:butt; stroke-linejoin:round; stroke-width:4; stroke-opacity:1; fill:none" points="
  264.287,1161.97 254.839,1161.97 
  "/>
<polyline clip-path="url(#clip510)" style="stroke:#333333; stroke-linecap:butt; stroke-linejoin:round; stroke-width:4; stroke-opacity:1; fill:none" points="
  264.287,717.43 254.839,717.43 
  "/>
<polyline clip-path="url(#clip510)" style="stroke:#333333; stroke-linecap:butt; stroke-linejoin:round; stroke-width:4; stroke-opacity:1; fill:none" points="
  264.287,272.892 254.839,272.892 
  "/>
<path clip-path="url(#clip510)" d="M198.343 1370.04 Q194.732 1370.04 192.903 1373.6 Q191.098 1377.14 191.098 1384.27 Q191.098 1391.38 192.903 1394.94 Q194.732 1398.49 198.343 1398.49 Q201.977 1398.49 203.783 1394.94 Q205.611 1391.38 205.611 1384.27 Q205.611 1377.14 203.783 1373.6 Q201.977 1370.04 198.343 1370.04 M198.343 1366.33 Q204.153 1366.33 207.209 1370.94 Q210.287 1375.52 210.287 1384.27 Q210.287 1393 207.209 1397.61 Q204.153 1402.19 198.343 1402.19 Q192.533 1402.19 189.454 1397.61 Q186.399 1393 186.399 1384.27 Q186.399 1375.52 189.454 1370.94 Q192.533 1366.33 198.343 1366.33 Z" fill="#4c4c4c" fill-rule="evenodd" fill-opacity="1" /><path clip-path="url(#clip510)" d="M98.6676 953.045 L106.306 953.045 L106.306 926.679 L97.9963 928.346 L97.9963 924.086 L106.26 922.42 L110.936 922.42 L110.936 953.045 L118.575 953.045 L118.575 956.98 L98.6676 956.98 L98.6676 953.045 Z" fill="#4c4c4c" fill-rule="evenodd" fill-opacity="1" /><path clip-path="url(#clip510)" d="M138.019 925.498 Q134.408 925.498 132.579 929.063 Q130.774 932.605 130.774 939.734 Q130.774 946.841 132.579 950.406 Q134.408 953.947 138.019 953.947 Q141.653 953.947 143.459 950.406 Q145.288 946.841 145.288 939.734 Q145.288 932.605 143.459 929.063 Q141.653 925.498 138.019 925.498 M138.019 921.795 Q143.829 921.795 146.885 926.401 Q149.964 930.984 149.964 939.734 Q149.964 948.461 146.885 953.068 Q143.829 957.651 138.019 957.651 Q132.209 957.651 129.13 953.068 Q126.075 948.461 126.075 939.734 Q126.075 930.984 129.13 926.401 Q132.209 921.795 138.019 921.795 Z" fill="#4c4c4c" fill-rule="evenodd" fill-opacity="1" /><path clip-path="url(#clip510)" d="M168.181 925.498 Q164.57 925.498 162.741 929.063 Q160.936 932.605 160.936 939.734 Q160.936 946.841 162.741 950.406 Q164.57 953.947 168.181 953.947 Q171.815 953.947 173.621 950.406 Q175.45 946.841 175.45 939.734 Q175.45 932.605 173.621 929.063 Q171.815 925.498 168.181 925.498 M168.181 921.795 Q173.991 921.795 177.047 926.401 Q180.125 930.984 180.125 939.734 Q180.125 948.461 177.047 953.068 Q173.991 957.651 168.181 957.651 Q162.371 957.651 159.292 953.068 Q156.237 948.461 156.237 939.734 Q156.237 930.984 159.292 926.401 Q162.371 921.795 168.181 921.795 Z" fill="#4c4c4c" fill-rule="evenodd" fill-opacity="1" /><path clip-path="url(#clip510)" d="M198.343 925.498 Q194.732 925.498 192.903 929.063 Q191.098 932.605 191.098 939.734 Q191.098 946.841 192.903 950.406 Q194.732 953.947 198.343 953.947 Q201.977 953.947 203.783 950.406 Q205.611 946.841 205.611 939.734 Q205.611 932.605 203.783 929.063 Q201.977 925.498 198.343 925.498 M198.343 921.795 Q204.153 921.795 207.209 926.401 Q210.287 930.984 210.287 939.734 Q210.287 948.461 207.209 953.068 Q204.153 957.651 198.343 957.651 Q192.533 957.651 189.454 953.068 Q186.399 948.461 186.399 939.734 Q186.399 930.984 189.454 926.401 Q192.533 921.795 198.343 921.795 Z" fill="#4c4c4c" fill-rule="evenodd" fill-opacity="1" /><path clip-path="url(#clip510)" d="M101.885 508.506 L118.204 508.506 L118.204 512.441 L96.2602 512.441 L96.2602 508.506 Q98.9222 505.751 103.505 501.122 Q108.112 496.469 109.292 495.126 Q111.538 492.603 112.417 490.867 Q113.32 489.108 113.32 487.418 Q113.32 484.664 111.376 482.927 Q109.455 481.191 106.353 481.191 Q104.154 481.191 101.7 481.955 Q99.2694 482.719 96.4916 484.27 L96.4916 479.548 Q99.3157 478.414 101.769 477.835 Q104.223 477.256 106.26 477.256 Q111.63 477.256 114.825 479.941 Q118.019 482.627 118.019 487.117 Q118.019 489.247 117.209 491.168 Q116.422 493.066 114.316 495.659 Q113.737 496.33 110.635 499.548 Q107.533 502.742 101.885 508.506 Z" fill="#4c4c4c" fill-rule="evenodd" fill-opacity="1" /><path clip-path="url(#clip510)" d="M138.019 480.96 Q134.408 480.96 132.579 484.525 Q130.774 488.066 130.774 495.196 Q130.774 502.302 132.579 505.867 Q134.408 509.409 138.019 509.409 Q141.653 509.409 143.459 505.867 Q145.288 502.302 145.288 495.196 Q145.288 488.066 143.459 484.525 Q141.653 480.96 138.019 480.96 M138.019 477.256 Q143.829 477.256 146.885 481.863 Q149.964 486.446 149.964 495.196 Q149.964 503.923 146.885 508.529 Q143.829 513.112 138.019 513.112 Q132.209 513.112 129.13 508.529 Q126.075 503.923 126.075 495.196 Q126.075 486.446 129.13 481.863 Q132.209 477.256 138.019 477.256 Z" fill="#4c4c4c" fill-rule="evenodd" fill-opacity="1" /><path clip-path="url(#clip510)" d="M168.181 480.96 Q164.57 480.96 162.741 484.525 Q160.936 488.066 160.936 495.196 Q160.936 502.302 162.741 505.867 Q164.57 509.409 168.181 509.409 Q171.815 509.409 173.621 505.867 Q175.45 502.302 175.45 495.196 Q175.45 488.066 173.621 484.525 Q171.815 480.96 168.181 480.96 M168.181 477.256 Q173.991 477.256 177.047 481.863 Q180.125 486.446 180.125 495.196 Q180.125 503.923 177.047 508.529 Q173.991 513.112 168.181 513.112 Q162.371 513.112 159.292 508.529 Q156.237 503.923 156.237 495.196 Q156.237 486.446 159.292 481.863 Q162.371 477.256 168.181 477.256 Z" fill="#4c4c4c" fill-rule="evenodd" fill-opacity="1" /><path clip-path="url(#clip510)" d="M198.343 480.96 Q194.732 480.96 192.903 484.525 Q191.098 488.066 191.098 495.196 Q191.098 502.302 192.903 505.867 Q194.732 509.409 198.343 509.409 Q201.977 509.409 203.783 505.867 Q205.611 502.302 205.611 495.196 Q205.611 488.066 203.783 484.525 Q201.977 480.96 198.343 480.96 M198.343 477.256 Q204.153 477.256 207.209 481.863 Q210.287 486.446 210.287 495.196 Q210.287 503.923 207.209 508.529 Q204.153 513.112 198.343 513.112 Q192.533 513.112 189.454 508.529 Q186.399 503.923 186.399 495.196 Q186.399 486.446 189.454 481.863 Q192.533 477.256 198.343 477.256 Z" fill="#4c4c4c" fill-rule="evenodd" fill-opacity="1" /><path clip-path="url(#clip510)" d="M112.024 49.2684 Q115.38 49.986 117.255 52.2545 Q119.154 54.5231 119.154 57.8564 Q119.154 62.9721 115.635 65.773 Q112.117 68.5739 105.635 68.5739 Q103.459 68.5739 101.144 68.1341 Q98.8527 67.7174 96.399 66.8609 L96.399 62.3471 Q98.3435 63.4813 100.658 64.06 Q102.973 64.6387 105.496 64.6387 Q109.894 64.6387 112.186 62.9026 Q114.501 61.1665 114.501 57.8564 Q114.501 54.8008 112.348 53.0879 Q110.218 51.3518 106.399 51.3518 L102.371 51.3518 L102.371 47.5092 L106.584 47.5092 Q110.033 47.5092 111.862 46.1435 Q113.691 44.7546 113.691 42.162 Q113.691 39.5 111.792 38.088 Q109.917 36.6528 106.399 36.6528 Q104.478 36.6528 102.279 37.0694 Q100.08 37.4861 97.4407 38.3657 L97.4407 34.1991 Q100.103 33.4583 102.418 33.088 Q104.755 32.7176 106.816 32.7176 Q112.14 32.7176 115.242 35.1482 Q118.343 37.5555 118.343 41.6759 Q118.343 44.5463 116.7 46.537 Q115.056 48.5046 112.024 49.2684 Z" fill="#4c4c4c" fill-rule="evenodd" fill-opacity="1" /><path clip-path="url(#clip510)" d="M138.019 36.4213 Q134.408 36.4213 132.579 39.9861 Q130.774 43.5277 130.774 50.6573 Q130.774 57.7638 132.579 61.3286 Q134.408 64.8702 138.019 64.8702 Q141.653 64.8702 143.459 61.3286 Q145.288 57.7638 145.288 50.6573 Q145.288 43.5277 143.459 39.9861 Q141.653 36.4213 138.019 36.4213 M138.019 32.7176 Q143.829 32.7176 146.885 37.3241 Q149.964 41.9074 149.964 50.6573 Q149.964 59.3841 146.885 63.9906 Q143.829 68.5739 138.019 68.5739 Q132.209 68.5739 129.13 63.9906 Q126.075 59.3841 126.075 50.6573 Q126.075 41.9074 129.13 37.3241 Q132.209 32.7176 138.019 32.7176 Z" fill="#4c4c4c" fill-rule="evenodd" fill-opacity="1" /><path clip-path="url(#clip510)" d="M168.181 36.4213 Q164.57 36.4213 162.741 39.9861 Q160.936 43.5277 160.936 50.6573 Q160.936 57.7638 162.741 61.3286 Q164.57 64.8702 168.181 64.8702 Q171.815 64.8702 173.621 61.3286 Q175.45 57.7638 175.45 50.6573 Q175.45 43.5277 173.621 39.9861 Q171.815 36.4213 168.181 36.4213 M168.181 32.7176 Q173.991 32.7176 177.047 37.3241 Q180.125 41.9074 180.125 50.6573 Q180.125 59.3841 177.047 63.9906 Q173.991 68.5739 168.181 68.5739 Q162.371 68.5739 159.292 63.9906 Q156.237 59.3841 156.237 50.6573 Q156.237 41.9074 159.292 37.3241 Q162.371 32.7176 168.181 32.7176 Z" fill="#4c4c4c" fill-rule="evenodd" fill-opacity="1" /><path clip-path="url(#clip510)" d="M198.343 36.4213 Q194.732 36.4213 192.903 39.9861 Q191.098 43.5277 191.098 50.6573 Q191.098 57.7638 192.903 61.3286 Q194.732 64.8702 198.343 64.8702 Q201.977 64.8702 203.783 61.3286 Q205.611 57.7638 205.611 50.6573 Q205.611 43.5277 203.783 39.9861 Q201.977 36.4213 198.343 36.4213 M198.343 32.7176 Q204.153 32.7176 207.209 37.3241 Q210.287 41.9074 210.287 50.6573 Q210.287 59.3841 207.209 63.9906 Q204.153 68.5739 198.343 68.5739 Q192.533 68.5739 189.454 63.9906 Q186.399 59.3841 186.399 50.6573 Q186.399 41.9074 189.454 37.3241 Q192.533 32.7176 198.343 32.7176 Z" fill="#4c4c4c" fill-rule="evenodd" fill-opacity="1" /><path clip-path="url(#clip510)" d="M18.0438 922.316 L24.314 922.316 Q22.5634 925.976 21.704 929.223 Q20.8447 932.469 20.8447 935.493 Q20.8447 940.745 22.8817 943.609 Q24.9187 946.442 28.6745 946.442 Q31.8255 946.442 33.4488 944.564 Q35.0402 942.654 36.0269 937.371 L36.8226 933.488 Q38.1912 926.295 41.6605 922.889 Q45.098 919.451 50.8908 919.451 Q57.7976 919.451 61.3624 924.098 Q64.9272 928.714 64.9272 937.657 Q64.9272 941.031 64.1633 944.851 Q63.3994 948.638 61.9035 952.712 L55.2831 952.712 Q57.4793 948.797 58.5933 945.042 Q59.7073 941.286 59.7073 937.657 Q59.7073 932.151 57.543 929.159 Q55.3786 926.167 51.3682 926.167 Q47.8671 926.167 45.8937 928.332 Q43.9204 930.464 42.9337 935.366 L42.1698 939.281 Q40.7375 946.474 37.682 949.689 Q34.6264 952.903 29.1837 952.903 Q22.8817 952.903 19.2532 948.479 Q15.6248 944.023 15.6248 936.225 Q15.6248 932.883 16.2295 929.414 Q16.8343 925.944 18.0438 922.316 Z" fill="#000000" fill-rule="evenodd" fill-opacity="1" /><path clip-path="url(#clip510)" d="M58.657 904.015 L77.5631 904.015 L77.5631 909.903 L28.3562 909.903 L28.3562 904.015 L33.7671 904.015 Q30.5842 902.169 29.0564 899.368 Q27.4968 896.535 27.4968 892.62 Q27.4968 886.127 32.6531 882.085 Q37.8093 878.011 46.212 878.011 Q54.6147 878.011 59.771 882.085 Q64.9272 886.127 64.9272 892.62 Q64.9272 896.535 63.3994 899.368 Q61.8398 902.169 58.657 904.015 M46.212 884.09 Q39.7508 884.09 36.0905 886.764 Q32.3984 889.405 32.3984 894.052 Q32.3984 898.699 36.0905 901.373 Q39.7508 904.015 46.212 904.015 Q52.6732 904.015 56.3653 901.373 Q60.0256 898.699 60.0256 894.052 Q60.0256 889.405 56.3653 886.764 Q52.6732 884.09 46.212 884.09 Z" fill="#000000" fill-rule="evenodd" fill-opacity="1" /><path clip-path="url(#clip510)" d="M44.7161 837.811 L47.5806 837.811 L47.5806 864.738 Q53.6281 864.356 56.8109 861.11 Q59.9619 857.831 59.9619 852.007 Q59.9619 848.633 59.1344 845.482 Q58.3069 842.299 56.6518 839.18 L62.1899 839.18 Q63.5267 842.331 64.227 845.641 Q64.9272 848.951 64.9272 852.357 Q64.9272 860.887 59.9619 865.884 Q54.9967 870.849 46.5303 870.849 Q37.7774 870.849 32.6531 866.139 Q27.4968 861.396 27.4968 853.375 Q27.4968 846.182 32.1438 842.013 Q36.7589 837.811 44.7161 837.811 M42.9973 843.668 Q38.1912 843.731 35.3266 846.373 Q32.4621 848.983 32.4621 853.312 Q32.4621 858.213 35.2312 861.173 Q38.0002 864.102 43.0292 864.547 L42.9973 843.668 Z" fill="#000000" fill-rule="evenodd" fill-opacity="1" /><path clip-path="url(#clip510)" d="M44.7161 797.707 L47.5806 797.707 L47.5806 824.634 Q53.6281 824.252 56.8109 821.006 Q59.9619 817.727 59.9619 811.903 Q59.9619 808.529 59.1344 805.378 Q58.3069 802.195 56.6518 799.076 L62.1899 799.076 Q63.5267 802.227 64.227 805.537 Q64.9272 808.847 64.9272 812.253 Q64.9272 820.783 59.9619 825.78 Q54.9967 830.745 46.5303 830.745 Q37.7774 830.745 32.6531 826.035 Q27.4968 821.292 27.4968 813.271 Q27.4968 806.078 32.1438 801.909 Q36.7589 797.707 44.7161 797.707 M42.9973 803.564 Q38.1912 803.627 35.3266 806.269 Q32.4621 808.879 32.4621 813.208 Q32.4621 818.109 35.2312 821.069 Q38.0002 823.998 43.0292 824.443 L42.9973 803.564 Z" fill="#000000" fill-rule="evenodd" fill-opacity="1" /><path clip-path="url(#clip510)" d="M33.7671 764.637 L14.479 764.637 L14.479 758.781 L64.0042 758.781 L64.0042 764.637 L58.657 764.637 Q61.8398 766.484 63.3994 769.316 Q64.9272 772.117 64.9272 776.064 Q64.9272 782.525 59.771 786.599 Q54.6147 790.641 46.212 790.641 Q37.8093 790.641 32.6531 786.599 Q27.4968 782.525 27.4968 776.064 Q27.4968 772.117 29.0564 769.316 Q30.5842 766.484 33.7671 764.637 M46.212 784.594 Q52.6732 784.594 56.3653 781.952 Q60.0256 779.279 60.0256 774.632 Q60.0256 769.985 56.3653 767.311 Q52.6732 764.637 46.212 764.637 Q39.7508 764.637 36.0905 767.311 Q32.3984 769.985 32.3984 774.632 Q32.3984 779.279 36.0905 781.952 Q39.7508 784.594 46.212 784.594 Z" fill="#000000" fill-rule="evenodd" fill-opacity="1" /><path clip-path="url(#clip510)" d="M28.3562 725.998 L28.3562 720.141 L64.0042 720.141 L64.0042 725.998 L28.3562 725.998 M14.479 725.998 L14.479 720.141 L21.895 720.141 L21.895 725.998 L14.479 725.998 Z" fill="#000000" fill-rule="evenodd" fill-opacity="1" /><path clip-path="url(#clip510)" d="M42.4881 678.255 L64.0042 678.255 L64.0042 684.111 L42.679 684.111 Q37.6183 684.111 35.1038 686.085 Q32.5894 688.058 32.5894 692.005 Q32.5894 696.747 35.6131 699.484 Q38.6368 702.222 43.8567 702.222 L64.0042 702.222 L64.0042 708.11 L28.3562 708.11 L28.3562 702.222 L33.8944 702.222 Q30.6797 700.121 29.0883 697.288 Q27.4968 694.424 27.4968 690.7 Q27.4968 684.557 31.3163 681.406 Q35.1038 678.255 42.4881 678.255 Z" fill="#000000" fill-rule="evenodd" fill-opacity="1" /><path clip-path="url(#clip510)" d="M41.7242 623.064 Q42.4244 620.995 44.7161 619.054 Q47.0077 617.08 51.0181 615.107 L64.0042 608.582 L64.0042 615.489 L51.8138 621.568 Q47.0395 623.924 45.48 626.151 Q43.9204 628.348 43.9204 632.167 L43.9204 639.169 L64.0042 639.169 L64.0042 645.599 L16.4842 645.599 L16.4842 631.085 Q16.4842 622.937 19.8898 618.926 Q23.2955 614.916 30.1704 614.916 Q34.6582 614.916 37.6183 617.017 Q40.5784 619.086 41.7242 623.064 M21.7677 639.169 L38.6368 639.169 L38.6368 631.085 Q38.6368 626.438 36.5043 624.083 Q34.34 621.696 30.1704 621.696 Q26.0009 621.696 23.9002 624.083 Q21.7677 626.438 21.7677 631.085 L21.7677 639.169 Z" fill="#000000" fill-rule="evenodd" fill-opacity="1" /><path clip-path="url(#clip510)" d="M21.7677 593.877 L39.6235 593.877 L39.6235 585.793 Q39.6235 581.305 37.3 578.854 Q34.9765 576.404 30.6797 576.404 Q26.4147 576.404 24.0912 578.854 Q21.7677 581.305 21.7677 585.793 L21.7677 593.877 M16.4842 600.307 L16.4842 585.793 Q16.4842 577.804 20.1126 573.73 Q23.7092 569.624 30.6797 569.624 Q37.7138 569.624 41.3104 573.73 Q44.907 577.804 44.907 585.793 L44.907 593.877 L64.0042 593.877 L64.0042 600.307 L16.4842 600.307 Z" fill="#000000" fill-rule="evenodd" fill-opacity="1" /><path clip-path="url(#clip510)" d="M16.4842 560.998 L16.4842 551.418 L48.8219 539.291 L16.4842 527.101 L16.4842 517.521 L64.0042 517.521 L64.0042 523.791 L22.277 523.791 L54.8694 536.045 L54.8694 542.506 L22.277 554.76 L64.0042 554.76 L64.0042 560.998 L16.4842 560.998 Z" fill="#000000" fill-rule="evenodd" fill-opacity="1" /><polyline clip-path="url(#clip512)" style="stroke:#009af9; stroke-linecap:butt; stroke-linejoin:round; stroke-width:4; stroke-opacity:1; fill:none" points="
  323.395,1384.24 327.335,1381.74 331.276,1379.23 335.216,1376.71 339.157,1374.19 343.097,1371.67 347.038,1369.14 350.978,1366.6 354.919,1364.06 358.859,1361.51 
  362.8,1358.96 366.74,1356.4 370.681,1353.83 374.622,1351.26 378.562,1348.69 382.503,1346.11 386.443,1343.52 390.384,1340.93 394.324,1338.33 398.265,1335.72 
  402.205,1333.11 406.146,1330.5 410.086,1327.88 414.027,1325.25 417.967,1322.62 421.908,1319.98 425.848,1317.34 429.789,1314.69 433.729,1312.03 437.67,1309.37 
  441.61,1306.7 445.551,1304.03 449.491,1301.35 453.432,1298.67 457.372,1295.98 461.313,1293.28 465.253,1290.58 469.194,1287.87 473.134,1285.16 477.075,1282.44 
  481.015,1279.72 484.956,1276.99 488.896,1274.25 492.837,1271.51 496.777,1268.76 500.718,1266 504.658,1263.24 508.599,1260.48 512.539,1257.7 516.48,1254.93 
  520.42,1252.14 524.361,1249.35 528.301,1246.56 532.242,1243.75 536.182,1240.95 540.123,1238.13 544.063,1235.31 548.004,1232.49 551.944,1229.65 555.885,1226.82 
  559.825,1223.97 563.766,1221.12 567.706,1218.26 571.647,1215.4 575.587,1212.53 579.528,1209.66 583.468,1206.78 587.409,1203.89 591.349,1200.99 595.29,1198.09 
  599.23,1195.19 603.171,1192.28 607.111,1189.36 611.052,1186.43 614.992,1183.5 618.933,1180.56 622.873,1177.62 626.814,1174.67 630.754,1171.71 634.695,1168.75 
  638.635,1165.78 642.576,1162.8 646.516,1159.82 650.457,1156.83 654.397,1153.83 658.338,1150.83 662.279,1147.82 666.219,1144.81 670.16,1141.79 674.1,1138.76 
  678.041,1135.72 681.981,1132.68 685.922,1129.63 689.862,1126.58 693.803,1123.51 697.743,1120.44 701.684,1117.37 705.624,1114.29 709.565,1111.2 713.505,1108.1 
  717.446,1105 721.386,1101.88 725.327,1098.77 729.267,1095.64 733.208,1092.51 737.148,1089.37 741.089,1086.23 745.029,1083.07 748.97,1079.91 752.91,1076.75 
  756.851,1073.57 760.791,1070.39 764.732,1067.2 768.672,1064 772.613,1060.8 776.553,1057.59 780.494,1054.37 784.434,1051.14 788.375,1047.91 792.315,1044.67 
  796.256,1041.42 800.196,1038.16 804.137,1034.9 808.077,1031.62 812.018,1028.34 815.958,1025.06 819.899,1021.76 823.839,1018.45 827.78,1015.14 831.72,1011.82 
  835.661,1008.49 839.601,1005.16 843.542,1001.81 847.482,998.46 851.423,995.098 855.363,991.728 859.304,988.35 863.244,984.963 867.185,981.568 871.125,978.164 
  875.066,974.751 879.006,971.329 882.947,967.899 886.887,964.46 890.828,961.011 894.768,957.554 898.709,954.088 902.649,950.612 906.59,947.127 910.53,943.633 
  914.471,940.13 918.411,936.617 922.352,933.094 926.292,929.562 930.233,926.02 934.173,922.469 938.114,918.907 942.054,915.335 945.995,911.754 949.935,908.162 
  953.876,904.56 957.817,900.948 961.757,897.325 965.698,893.691 969.638,890.047 973.579,886.393 977.519,882.727 981.46,879.05 985.4,875.363 989.341,871.664 
  993.281,867.954 997.222,864.232 1001.16,860.499 1005.1,856.754 1009.04,852.998 1012.98,849.229 1016.92,845.449 1020.86,841.656 1024.81,837.851 1028.75,834.033 
  1032.69,830.203 1036.63,826.361 1040.57,822.505 1044.51,818.636 1048.45,814.754 1052.39,810.859 1056.33,806.951 1060.27,803.028 1064.21,799.092 1068.15,795.142 
  1072.09,791.178 1076.03,787.199 1079.97,783.206 1083.91,779.198 1087.85,775.175 1091.79,771.137 1095.73,767.083 1099.67,763.014 1103.62,758.929 1107.56,754.829 
  1111.5,750.712 1115.44,746.578 1119.38,742.428 1123.32,738.261 1127.26,734.077 1131.2,729.875 1135.14,725.656 1139.08,721.418 1143.02,717.163 1146.96,712.889 
  1150.9,708.596 1154.84,704.285 1158.78,699.954 1162.72,695.603 1166.66,691.232 1170.6,686.841 1174.54,682.429 1178.48,677.997 1182.43,673.543 1186.37,669.067 
  1190.31,664.57 1194.25,660.05 1198.19,655.508 1202.13,650.942 1206.07,646.353 1210.01,641.74 1213.95,637.102 1217.89,632.44 1221.83,627.753 1225.77,623.039 
  1229.71,618.3 1233.65,613.533 1237.59,608.74 1241.53,603.918 1245.47,599.069 1249.41,594.19 1253.35,589.283 1257.3,584.345 1261.24,579.377 1265.18,574.378 
  1269.12,569.347 1273.06,564.284 1277,559.188 1280.94,554.058 1284.88,548.894 1288.82,543.695 1292.76,538.461 1296.7,533.19 1300.64,527.882 1304.58,522.536 
  1308.52,517.152 1312.46,511.728 1316.4,506.263 1320.34,500.758 1324.28,495.211 1328.22,489.62 1332.16,483.987 1336.11,478.308 1340.05,472.585 1343.99,466.815 
  1347.93,460.998 1351.87,455.134 1355.81,449.22 1359.75,443.256 1363.69,437.242 1367.63,431.176 1371.57,425.057 1375.51,418.886 1379.45,412.66 1383.39,406.38 
  1387.33,400.044 1391.27,393.651 1395.21,387.202 1399.15,380.695 1403.09,374.131 1407.03,367.51 1410.97,360.832 1414.92,354.097 1418.86,347.306 1422.8,340.459 
  1426.74,333.558 1430.68,326.603 1434.62,319.598 1438.56,312.543 1442.5,305.443 1446.44,298.3 1450.38,291.119 1454.32,283.905 1458.26,276.665 1462.2,269.407 
  1466.14,262.138 1470.08,254.867 1474.02,247.606 1477.96,240.364 1481.9,233.156 1485.84,225.996 1489.78,218.901 1493.73,211.887 1497.67,204.972 1501.61,198.173 
  1505.55,191.51 1509.49,185.003 1513.43,178.67 1517.37,172.531 1521.31,166.602 1525.25,160.9 1529.19,155.438 1533.13,150.226 1537.07,145.273 1541.01,140.586 
  1544.95,136.167 1548.89,132.018 1552.83,128.137 1556.77,124.517 1560.71,121.154 1564.65,118.038 1568.6,115.161 1572.54,112.51 1576.48,110.074 1580.42,107.84 
  1584.36,105.795 1588.3,103.929 1592.24,102.227 1596.18,100.679 1600.12,99.2706 1604.06,97.9922 1608,96.8331 1611.94,95.7833 1615.88,94.8334 1619.82,93.9744 
  1623.76,93.1981 1627.7,92.4971 1631.64,91.8647 1635.58,91.2944 1639.52,90.7804 1643.46,90.3173 1647.41,89.9 1651.35,89.5242 1655.29,89.1861 1659.23,88.8819 
  1663.17,88.6083 1667.11,88.3623 1671.05,88.1409 1674.99,87.9419 1678.93,87.763 1682.87,87.6023 1686.81,87.4579 1690.75,87.3282 1694.69,87.2116 1698.63,87.1068 
  1702.57,87.0127 1706.51,86.9282 1710.45,86.8524 1714.39,86.7843 1718.33,86.7231 1722.27,86.6681 1726.22,86.6188 1730.16,86.5744 1734.1,86.5346 1738.04,86.4989 
  1741.98,86.4669 1745.92,86.4382 1749.86,86.4123 1753.8,86.3891 1757.74,86.3683 1761.68,86.3496 1765.62,86.3328 1769.56,86.3177 1773.5,86.3042 1777.44,86.2921 
  1781.38,86.2812 1785.32,86.2714 1789.26,86.2626 1793.2,86.2547 1797.14,86.2476 1801.08,86.2413 1805.03,86.2356 1808.97,86.2305 1812.91,86.2259 1816.85,86.2218 
  1820.79,86.2181 1824.73,86.2148 1828.67,86.2118 1832.61,86.2091 1836.55,86.2067 1840.49,86.2046 1844.43,86.2026 1848.37,86.2009 1852.31,86.1994 1856.25,86.198 
  1860.19,86.1967 1864.13,86.1956 1868.07,86.1946 1872.01,86.1936 1875.95,86.1928 1879.9,86.1921 1883.84,86.1914 1887.78,86.1908 1891.72,86.1903 1895.66,86.1899 
  1899.6,86.1894 1903.54,86.1891 1907.48,86.1887 1911.42,86.1884 1915.36,86.1881 1919.3,86.1879 1923.24,86.1876 1927.18,86.1874 1931.12,86.1873 1935.06,86.1871 
  1939,86.187 1942.94,86.1868 1946.88,86.1867 1950.82,86.1866 1954.76,86.1865 1958.71,86.1864 1962.65,86.1864 1966.59,86.1863 1970.53,86.1862 1974.47,86.1862 
  1978.41,86.1861 1982.35,86.1861 1986.29,86.186 1990.23,86.186 1994.17,86.186 1998.11,86.1859 2002.05,86.1859 2005.99,86.1859 2009.93,86.1859 2013.87,86.1859 
  2017.81,86.1858 2021.75,86.1858 2025.69,86.1858 2029.63,86.1858 2033.57,86.1858 2037.52,86.1858 2041.46,86.1858 2045.4,86.1858 2049.34,86.1858 2053.28,86.1857 
  2057.22,86.1857 2061.16,86.1857 2065.1,86.1857 2069.04,86.1857 2072.98,86.1857 2076.92,86.1857 2080.86,86.1857 2084.8,86.1857 2088.74,86.1857 2092.68,86.1857 
  2096.62,86.1857 2100.56,86.1857 2104.5,86.1857 2108.44,86.1857 2112.38,86.1857 2116.33,86.1857 2120.27,86.1857 2124.21,86.1857 2128.15,86.1857 2132.09,86.1857 
  2136.03,86.1857 2139.97,86.1857 2143.91,86.1857 2147.85,86.1857 2151.79,86.1857 2155.73,86.1857 2159.67,86.1857 2163.61,86.1857 2167.55,86.1857 2171.49,86.1857 
  2175.43,86.1857 2179.37,86.1857 2183.31,86.1857 2187.25,86.1857 2191.2,86.1857 2195.14,86.1857 2199.08,86.1857 2203.02,86.1857 2206.96,86.1857 2210.9,86.1857 
  2214.84,86.1857 2218.78,86.1857 2222.72,86.1857 2226.66,86.1857 2230.6,86.1857 2234.54,86.1857 2238.48,86.1857 2242.42,86.1857 2246.36,86.1857 2250.3,86.1857 
  2254.24,86.1857 2258.18,86.1857 2262.12,86.1857 2266.06,86.1857 2270.01,86.1857 2273.95,86.1857 2277.89,86.1857 2281.83,86.1857 2285.77,86.1857 2289.71,86.1857 
  2293.65,86.1857 
  "/>
<path clip-path="url(#clip510)" d="
M1736.83 196.789 L2283.14 196.789 L2283.14 93.1086 L1736.83 93.1086  Z
  " fill="#eaeaea" fill-rule="evenodd" fill-opacity="1"/>
<polyline clip-path="url(#clip510)" style="stroke:#ffffff; stroke-linecap:butt; stroke-linejoin:round; stroke-width:4; stroke-opacity:1; fill:none" points="
  1736.83,196.789 2283.14,196.789 2283.14,93.1086 1736.83,93.1086 1736.83,196.789 
  "/>
<polyline clip-path="url(#clip510)" style="stroke:#009af9; stroke-linecap:butt; stroke-linejoin:round; stroke-width:4; stroke-opacity:1; fill:none" points="
  1760.04,144.949 1899.27,144.949 
  "/>
<path clip-path="url(#clip510)" d="M1923.93 127.669 L1942.29 127.669 L1942.29 131.604 L1928.21 131.604 L1928.21 140.076 Q1929.23 139.729 1930.25 139.567 Q1931.27 139.382 1932.29 139.382 Q1938.07 139.382 1941.45 142.553 Q1944.83 145.724 1944.83 151.141 Q1944.83 156.719 1941.36 159.821 Q1937.89 162.9 1931.57 162.9 Q1929.39 162.9 1927.13 162.53 Q1924.88 162.159 1922.47 161.418 L1922.47 156.719 Q1924.56 157.854 1926.78 158.409 Q1929 158.965 1931.48 158.965 Q1935.48 158.965 1937.82 156.858 Q1940.16 154.752 1940.16 151.141 Q1940.16 147.53 1937.82 145.423 Q1935.48 143.317 1931.48 143.317 Q1929.6 143.317 1927.73 143.733 Q1925.88 144.15 1923.93 145.03 L1923.93 127.669 Z" fill="#000000" fill-rule="evenodd" fill-opacity="1" /><path clip-path="url(#clip510)" d="M1964.05 130.747 Q1960.44 130.747 1958.61 134.312 Q1956.8 137.854 1956.8 144.983 Q1956.8 152.09 1958.61 155.655 Q1960.44 159.196 1964.05 159.196 Q1967.68 159.196 1969.49 155.655 Q1971.31 152.09 1971.31 144.983 Q1971.31 137.854 1969.49 134.312 Q1967.68 130.747 1964.05 130.747 M1964.05 127.044 Q1969.86 127.044 1972.91 131.65 Q1975.99 136.233 1975.99 144.983 Q1975.99 153.71 1972.91 158.317 Q1969.86 162.9 1964.05 162.9 Q1958.24 162.9 1955.16 158.317 Q1952.1 153.71 1952.1 144.983 Q1952.1 136.233 1955.16 131.65 Q1958.24 127.044 1964.05 127.044 Z" fill="#000000" fill-rule="evenodd" fill-opacity="1" /><path clip-path="url(#clip510)" d="M1998.86 127.669 L2003.54 127.669 L2003.54 141.835 L2020.53 141.835 L2020.53 127.669 L2025.2 127.669 L2025.2 162.229 L2020.53 162.229 L2020.53 145.77 L2003.54 145.77 L2003.54 162.229 L1998.86 162.229 L1998.86 127.669 Z" fill="#000000" fill-rule="evenodd" fill-opacity="1" /><path clip-path="url(#clip510)" d="M2032.47 136.303 L2052.7 136.303 L2052.7 140.192 L2036.68 158.826 L2052.7 158.826 L2052.7 162.229 L2031.89 162.229 L2031.89 158.34 L2047.91 139.706 L2032.47 139.706 L2032.47 136.303 Z" fill="#000000" fill-rule="evenodd" fill-opacity="1" /><path clip-path="url(#clip510)" d="M2100.34 130.331 L2100.34 135.261 Q2097.98 133.062 2095.3 131.974 Q2092.63 130.886 2089.62 130.886 Q2083.7 130.886 2080.55 134.52 Q2077.4 138.132 2077.4 144.983 Q2077.4 151.812 2080.55 155.446 Q2083.7 159.057 2089.62 159.057 Q2092.63 159.057 2095.3 157.969 Q2097.98 156.881 2100.34 154.682 L2100.34 159.567 Q2097.89 161.233 2095.13 162.067 Q2092.4 162.9 2089.35 162.9 Q2081.5 162.9 2076.99 158.108 Q2072.47 153.293 2072.47 144.983 Q2072.47 136.65 2076.99 131.858 Q2081.5 127.044 2089.35 127.044 Q2092.45 127.044 2095.18 127.877 Q2097.93 128.687 2100.34 130.331 Z" fill="#000000" fill-rule="evenodd" fill-opacity="1" /><path clip-path="url(#clip510)" d="M2117.42 139.289 Q2114 139.289 2112.01 141.974 Q2110.02 144.636 2110.02 149.289 Q2110.02 153.942 2111.99 156.627 Q2113.98 159.289 2117.42 159.289 Q2120.83 159.289 2122.82 156.604 Q2124.81 153.918 2124.81 149.289 Q2124.81 144.682 2122.82 141.997 Q2120.83 139.289 2117.42 139.289 M2117.42 135.678 Q2122.98 135.678 2126.15 139.289 Q2129.32 142.9 2129.32 149.289 Q2129.32 155.655 2126.15 159.289 Q2122.98 162.9 2117.42 162.9 Q2111.85 162.9 2108.68 159.289 Q2105.53 155.655 2105.53 149.289 Q2105.53 142.9 2108.68 139.289 Q2111.85 135.678 2117.42 135.678 Z" fill="#000000" fill-rule="evenodd" fill-opacity="1" /><path clip-path="url(#clip510)" d="M2157.93 146.581 L2157.93 162.229 L2153.67 162.229 L2153.67 146.719 Q2153.67 143.039 2152.24 141.21 Q2150.8 139.382 2147.93 139.382 Q2144.48 139.382 2142.49 141.581 Q2140.5 143.78 2140.5 147.576 L2140.5 162.229 L2136.22 162.229 L2136.22 136.303 L2140.5 136.303 L2140.5 140.331 Q2142.03 137.993 2144.09 136.835 Q2146.17 135.678 2148.88 135.678 Q2153.35 135.678 2155.64 138.456 Q2157.93 141.21 2157.93 146.581 Z" fill="#000000" fill-rule="evenodd" fill-opacity="1" /><path clip-path="url(#clip510)" d="M2170.64 128.942 L2170.64 136.303 L2179.42 136.303 L2179.42 139.613 L2170.64 139.613 L2170.64 153.687 Q2170.64 156.858 2171.5 157.761 Q2172.38 158.664 2175.04 158.664 L2179.42 158.664 L2179.42 162.229 L2175.04 162.229 Q2170.11 162.229 2168.23 160.4 Q2166.36 158.548 2166.36 153.687 L2166.36 139.613 L2163.23 139.613 L2163.23 136.303 L2166.36 136.303 L2166.36 128.942 L2170.64 128.942 Z" fill="#000000" fill-rule="evenodd" fill-opacity="1" /><path clip-path="url(#clip510)" d="M2200.04 140.284 Q2199.32 139.868 2198.47 139.682 Q2197.63 139.474 2196.61 139.474 Q2193 139.474 2191.06 141.835 Q2189.14 144.173 2189.14 148.571 L2189.14 162.229 L2184.86 162.229 L2184.86 136.303 L2189.14 136.303 L2189.14 140.331 Q2190.48 137.969 2192.63 136.835 Q2194.79 135.678 2197.86 135.678 Q2198.3 135.678 2198.84 135.747 Q2199.37 135.794 2200.02 135.909 L2200.04 140.284 Z" fill="#000000" fill-rule="evenodd" fill-opacity="1" /><path clip-path="url(#clip510)" d="M2213.51 139.289 Q2210.09 139.289 2208.1 141.974 Q2206.11 144.636 2206.11 149.289 Q2206.11 153.942 2208.07 156.627 Q2210.06 159.289 2213.51 159.289 Q2216.92 159.289 2218.91 156.604 Q2220.9 153.918 2220.9 149.289 Q2220.9 144.682 2218.91 141.997 Q2216.92 139.289 2213.51 139.289 M2213.51 135.678 Q2219.07 135.678 2222.24 139.289 Q2225.41 142.9 2225.41 149.289 Q2225.41 155.655 2222.24 159.289 Q2219.07 162.9 2213.51 162.9 Q2207.93 162.9 2204.76 159.289 Q2201.61 155.655 2201.61 149.289 Q2201.61 142.9 2204.76 139.289 Q2207.93 135.678 2213.51 135.678 Z" fill="#000000" fill-rule="evenodd" fill-opacity="1" /><path clip-path="url(#clip510)" d="M2232.47 126.21 L2236.73 126.21 L2236.73 162.229 L2232.47 162.229 L2232.47 126.21 Z" fill="#000000" fill-rule="evenodd" fill-opacity="1" /></svg>
